<svg class="loader" version="1.1" xmlns="http://www.w3.org/2000/svg" xmlns:xlink="http://www.w3.org/1999/xlink" x="0px" y="0px" viewBox="0 0 686 663" style="enable-background:new 0 0 686 663" xml:space="preserve"><style type="text/css">.st0{fill:#e4300e}.st1{fill-rule:evenodd;clip-rule:evenodd;fill:#bf1d1d}.st2{fill:#564637}.st3{fill-rule:evenodd;clip-rule:evenodd;fill:#951616}.st4{clip-path:url(#XMLID_3_);fill-rule:evenodd;clip-rule:evenodd;fill:#ffc30d}.st5{fill-rule:evenodd;clip-rule:evenodd;fill:#777391}.st6{fill-rule:evenodd;clip-rule:evenodd;fill:#81a7ce}.st7{fill-rule:evenodd;clip-rule:evenodd;fill:#c41c0f}.st8{opacity:.4;fill-rule:evenodd;clip-rule:evenodd;fill:#c41c0f}.st9{fill-rule:evenodd;clip-rule:evenodd;fill:#392d24}.st10{fill-rule:evenodd;clip-rule:evenodd;fill:#3a2e24}.st11{fill-rule:evenodd;clip-rule:evenodd;fill:#8e97a6}.st12{fill-rule:evenodd;clip-rule:evenodd;fill:#a8201a}.st13{fill-rule:evenodd;clip-rule:evenodd;fill:#e5310e}.st14{fill-rule:evenodd;clip-rule:evenodd;fill:#bf1f13}.st15{fill-rule:evenodd;clip-rule:evenodd;fill:#23272a}.st16{fill-rule:evenodd;clip-rule:evenodd;fill:#d34131}.st17{fill-rule:evenodd;clip-rule:evenodd;fill:#625956}.st18{fill-rule:evenodd;clip-rule:evenodd;fill:#931212}.st19{fill-rule:evenodd;clip-rule:evenodd;fill:#202529}.st20{fill-rule:evenodd;clip-rule:evenodd;fill:#405672}.st21{fill-rule:evenodd;clip-rule:evenodd;fill:#c8c6e5}.st22{fill-rule:evenodd;clip-rule:evenodd;fill:#323941}.st23{fill-rule:evenodd;clip-rule:evenodd;fill:#405360}.st24{fill-rule:evenodd;clip-rule:evenodd;fill:#e8180b}.st25{fill:#da2128}.st26{opacity:.15;fill:#fff}.st27{fill:#a4181c}.st28{fill:#fd0}.st29{fill:#cd8c13}.st30{opacity:.4;fill:#fff}.st31{fill:#c38019}.st32{fill:#921b1e}.st33{clip-path:url(#SVGID_2_)}.st34{opacity:.12;fill:#620000}.st35{fill:#fff}.st36{fill:#c5e7f8}.st37{fill:#9fbfe4}.st38{opacity:.25;fill:url(#SVGID_3_)}.st39{opacity:.25;fill:url(#SVGID_4_)}.st40{fill:#a31e22}.st41{fill:#d92228}.st42{opacity:.35;fill:#a31e22}.st43{opacity:.35;fill:url(#SVGID_5_)}.st44{fill:#9dcfef}.st45{opacity:.25;fill:url(#SVGID_6_)}.st46{opacity:.25;fill:url(#SVGID_7_)}.st47{fill:#931216}.st48{fill:#221f1f}.st49{fill:#293941}.st50{fill:#2a3a42}.st51{fill:#2b3b43}.st52{fill:#2c3c44}.st53{fill:#2d3d45}.st54{fill:#2e3e46}.st55{fill:#2f3f47}.st56{fill:#303f47}.st57{fill:#314048}.st58{fill:#324149}.st59{fill:#33424a}.st60{fill:#34434b}.st61{fill:#35444c}.st62{fill:#36454d}.st63{fill:#36464e}.st64{fill:#37474f}.st65{fill:#384850}.st66{fill:#394951}.st67{fill:#3a4a52}.st68{fill:#3b4b53}.st69{fill:#3c4c54}.st70{fill:#3d4c54}.st71{fill:#3e4d55}.st72{fill:#3f4e56}.st73{fill:#404f57}.st74{fill:#415058}.st75{fill:#425159}.st76{fill:#43525a}.st77{fill:#3f4f57}.st78{fill:#405058}.st79{fill:#dbf1fc}.st80{fill:#f9c8a8}.st81{fill:#e8f5fa}.st82{fill:#f49980}.st83{fill:#b1571c}.st84{fill:none}.st85{fill:#80080b}.st86{opacity:.45;fill:url(#SVGID_8_)}.st87{fill:#c51f21}.st88{fill:#a4181a}.st89{fill:#9ed0ed}.st90{fill:#222120}.st91{fill:#b0551b}.st92{fill:#b1571d}.st93{opacity:.2;fill:url(#SVGID_9_)}.st94{opacity:.2;fill:url(#SVGID_10_)}.st95{opacity:.15;fill:url(#SVGID_11_)}.st96{opacity:.15;fill:url(#SVGID_12_)}.st97{fill:#bd1c20}.st98{fill:#b2551e}.st99{fill-rule:evenodd;clip-rule:evenodd;fill:#414141}.st100{fill-rule:evenodd;clip-rule:evenodd;fill:#1a1a18}.st101{fill-rule:evenodd;clip-rule:evenodd;fill:#e22d0a}.st102{fill-rule:evenodd;clip-rule:evenodd;fill:#ef431b}.st103{fill-rule:evenodd;clip-rule:evenodd;fill:#08192a}.st104{fill-rule:evenodd;clip-rule:evenodd;fill:#132539}.st105{fill-rule:evenodd;clip-rule:evenodd;fill:#9fbedf}.st106{fill-rule:evenodd;clip-rule:evenodd;fill:#a9c9e9}.st107{fill-rule:evenodd;clip-rule:evenodd;fill:#b4add8}.st108{fill-rule:evenodd;clip-rule:evenodd;fill:#a4c0dd}.st109{fill-rule:evenodd;clip-rule:evenodd;fill:#fefefe}</style><g id="BG"></g><g id="Back_Bike"><g><path class="st0" d="M372.3,468.1l-1.1,0l-46.8-0.5l14.4-94.2c53.8-3.6,49.3-2.9,54.5-0.6c2.4,1-0.9,11.3-0.9,11.3l1.3,68.6"></path><path class="st1" d="M370.1,442.2c3.8-0.1,5.1-1.7,4.3-5.1c-0.9-4-1-8.1-0.3-12.2c0-0.3,0.2-0.6,0.2-0.9c-0.2-5.3,0.7-10.6,0.3-16
                    c-0.2-2.7-0.4-5.5-0.5-8.5c1.3,1.2,1.6,2.6,2.2,3.9c3,6,5.2,12.2,7.7,18.3c2.9,6.8,5.7,13.6,8,20.6c0.1,0.4,0.5,0.9,0.5,1.3
                    c-0.2,2.3,1.3,2.3,3.1,2.2c1.3-0.1,2.7-0.4,3.9,0.2c1.4,1.5,0.9,2.8-0.4,4.3c-3.6,4.3-7.9,8.1-11.7,12.3c-1.3,1.5-2.7,2.9-3.7,4.9
                    c2.8-0.1,5.4,0.1,7.9-0.2c2-0.2,3.9-0.4,5.9-0.4c5.7,0,11.4-0.6,17.1-0.7c0.5,0,1.3-0.3,1.6,0.2c0.3,0.5-0.4,0.9-0.5,1.4
                    c-0.9,2.5-3,3-5.6,3.1c-4.2,0.1-8.4,0.9-12.7,1c-8.8,0.2-17.5,0.1-26.3,0.1c-6.2,0-12.4,0.2-18.6,0.2c-3.5,0-6.9-0.7-10.2-1.7
                    c-2.1-0.6-3.3-2.5-4.8-3.9c-0.4-0.1-0.6-0.4-0.8-0.7c-0.3-0.4-0.3-0.7,0.4-0.7c0.8-0.2,1.5,0.1,2.2,0.4c5,1.9,10.1,2.4,15.5,2.3
                    c4.7-0.1,9.4-0.2,14.1-0.3c2.4-0.1,3-0.3,3.2-2.4c0.5-5.2,0.9-10.4-0.1-15.6c-0.1-0.3-0.2-0.7-0.4-1c-0.9-1.7-1.1-3.5-1.8-5.3
                    C369.6,442.9,369.2,442.4,370.1,442.2z"></path><g><g><path class="st2" d="M478.1,401.1c-5.6,0.1-11-2.1-14-3.9l5.5-5.5c0.3,0.2,8,4.9,12.8,0.8c6.2-5.3,20.3-36.5,20.7-44.8
                            l-13.7,0.4l-0.2-7l16.3-0.4c2.4-0.1,4.4,1,5.5,2.8c2.1,3.6-0.2,12.9-6.7,27.5c-4.3,9.6-10.9,22.3-15.5,26.3
                            C485.6,399.9,481.8,401,478.1,401.1z"></path></g><polygon class="st3" points="528.4,342.8 362.5,343.2 361,208.7 526.8,208.3 			"></polygon><g><defs><polygon id="XMLID_1_" points="528.4,342.8 469.9,342.9 468.3,208.4 526.8,208.3 					"></polygon></defs><use xlink:href="#XMLID_1_" style="overflow:visible;fill-rule:evenodd;clip-rule:evenodd;fill:#be1d1d"></use><clipPath id="XMLID_3_"><use xlink:href="#XMLID_1_" style="overflow:visible"></use></clipPath><path class="st4" d="M493.6,226.4c1,0.3,20.8,12.6,23.4,15.7c2.5,3-19.7,93.6-19.7,93.6l34.6-0.2l2.9-116.9L493.6,226.4z"></path></g><polygon class="st5" points="528.4,342.8 355.2,343.2 355.1,334.9 528.3,334.5 			"></polygon><polygon class="st6" points="532.8,342.8 469.6,342.9 469.5,334.6 532.7,334.5 			"></polygon><polygon class="st7" points="526.2,225.1 360.4,228.2 359.9,210 525.7,206.9 			"></polygon><polygon class="st8" points="527.1,229.8 361.2,230.2 361.2,225 527,224.6 			"></polygon><path class="st9" d="M469.5,483.1c-1.6,11.2-5.3,21.6-13.3,30.4c-5.6,6.1-12.5,9.6-21.3,9.5c-6.5-0.1-13.1,0.2-19.6,0.4
                        c-10.2,0.4-18.2-3.3-24.5-10.4c-5.4-6-8.7-13-11-20.4c-0.1-0.3-0.2-0.5-0.4-0.8c-0.6-1.4-1.8-2.7-0.9-4.3
                        c0.8-0.3,1.5-0.1,2.2,0.2c4.8,2,9.8,2.2,14.9,1.7c7.1-0.6,14.1-1.4,21.1-2.9c5.6-1.1,11.2-2.1,16.8-3.1c3.7,0,7.3,0.5,11,0.3
                        c7.6-0.2,15.1-0.7,22.6-1.7C467.9,481.9,469.4,481.2,469.5,483.1z"></path><path class="st10" d="M371.1,368.2c-3-7.6,0.6-17.9,10.1-20.3c6.6-1.6,13.2-2.4,19.8-3.7c3.4-0.7,6.9-0.7,10.3-1.3
                        c1.1-0.2,2.2,0.6,3.3,0c13.2-0.7,26.3-1.3,39.5-1c2.2,0.1,4.3,0.2,6.2,1.7c2.2,1.9,3.4,4,2.9,6.8c-0.2,1-0.1,2.1,0,3.1
                        c0.3,2.6-0.2,3.2-3,3.8c-12.2,2.7-24.6,4.2-36.8,7c-2.1,0.5-4.2,1.3-6.5,1.3c-3-0.4-5.9,0.3-8.9,0.6c-3.8,0.3-7.6,0.4-11.4,0.7
                        c-4.5,0.3-9,0.6-13.4,0.8C379.3,368,375.2,368.3,371.1,368.2z"></path><path class="st11" d="M479.7,456.5c-0.5-1.3-0.8-3.6-1.7-4.7c0,0,0,0,0-0.1c-0.1,0-0.2-0.3-0.3-0.5c-1.1-1.9-2.6-3.5-4.3-5
                        c-1.3-1.2-2.9-1.8-4.8-1.1c-1.8,0.3-5.7,1.7-6.5,2c-1.2-0.1-2.2,0.4-3.3,0.8c-4.5,1.9-9.1,3.6-13.3,6.1c-2,1.2-3.9,1.8-6.2,1.7
                        c-0.9,0-1.9-0.3-2.6,0.7c1,1.1,2.5,0.2,3.7,0.6c-2.9,2.1-5.9,4-8.7,6.1c-0.7,0.5-1.4,1.2-2.5,1.2c-1.3,1.5-2.9,2.7-4.5,3.9
                        c-0.5,0.3-1,0.8-1.1,1.4c0.9,1.2,2.2,1.7,3.8,1.9c5.3-3.7,10.6-7.3,16-10.8c7.5-4.8,15.6-8.3,24.1-11.2c2.3-0.8,3.1-0.5,4.1,1.5
                        c1.6,3.3,3,6.6,3.5,10.2c0.5,3.2,0.4,3.5-3,4.5c-3.1,0.9-6.3,1.4-9.4,2.4c-5.8,2-11.8,3.3-17.8,4.4c-4.2,0.8-8.5,1.7-12.5,3.2
                        c-1,0.4-2.1,0.7-2.6,1.7c0.2,2.3,1.6,4.2,2.9,6.1c0.1,0.1,0.3,0.1,0.5,0.2c3.6,0.2,7.2,0.5,10.8,0.4c7.9-0.1,15.8-0.6,23.6-1.8
                        c0.7-0.1,1.6-0.5,1.8,0.6c0.3-0.6,0.7-1,1.5-1.1c2.8-0.2,5.2-1.5,7.4-3c1.2-0.9,2.3-2,2.5-3.4c0.4-2,0.6-4,0.7-5.9
                        c0.1-3.9-0.4-7.7-1.3-11.4C480.1,457.6,479.9,457.1,479.7,456.5z"></path><path class="st12" d="M457.2,366.3c1.3,2,2.7,4.1,4,6.1c0.4,0.4,0.8,0.7,1.1,1.2c1.4,2.9,3.6,5.3,5.7,7.8
                        c2.9,3.5,4.8,7.4,6.5,11.5c0.2,0.7,0.2,1.4,0.5,2c1.3,4.5,3.2,9,3.4,13.8c0.3,0.8,0.3,1.7,0.1,2.5c-0.9,0.1-1.2-0.4-1.6-0.9
                        c-4.5-5.6-10.7-9.5-16.5-13.8c-4.6-3.4-9.5-6.1-15.3-7.4c-0.4-0.1-0.7-0.2-0.8-0.6c0.1-0.2,0.2-0.4,0.1-0.5
                        c-2.7-4.1-3.9-8.8-6.2-13c-1.1-1.9-2.3-3.8-3.7-5.5c-0.5-0.6-1.3-1.4,0-2c2.1-0.5,4.3-0.3,6.4-0.5c5.1-0.5,10.2-0.9,15.3-0.9
                        C456.5,366,456.9,366.1,457.2,366.3z"></path><path class="st10" d="M423.7,469.6c0.9,1,2.6,1,3.4,2.1c1.7,1.6,2.8,3.5,3,5.8c0.7,2.2,1.9,4.3,3.2,6.3c-2.7,1.1-5.7,1-8.5,1.6
                        c-5.8,1.2-11.5,2.5-17.4,3.2c-5.6,0.7-11.2,1.8-16.9,1.5c-3.3-0.2-6.8-0.2-9.9-1.8c-0.6-0.3-1.4-0.4-2.2-0.6
                        c-1.1,0.4-1.8-0.2-2.7-0.7c-3.7-1.4-7.7-1.6-11.5-2.2c-0.9-0.6-2.1,0-3.2-0.6c0.3-0.6,1-0.8,1.5-1c2.1-0.8,3.5-2.3,4.9-3.8
                        c2-2.3,4.2-3.2,7.3-2.4c3.1,0.8,6.3,1.5,9.2,2.5c4.8,1.8,9.7,1.2,14.6,0.5c5.5-0.8,10.8-2.4,15.9-4.4c2.2-0.9,4.1-2.1,5.7-3.7
                        c0.9-0.9,1.8-1.7,2.9-2.2C423.3,469.4,423.5,469.4,423.7,469.6z"></path><path class="st12" d="M475.7,442c-0.1,0-0.3,0-0.4,0c-0.1-0.1-0.2-0.1-0.3-0.1c-2.9-0.1-3.2-0.3-2.8-3.1c0.4-2.9-0.1-5.6-0.9-8.5
                        c-3.2-10.8-7-21.4-12-31.6c-0.2-0.4-0.4-0.7-0.3-1.2c0.6-0.9,1.2-0.3,1.7,0c3.1,2,6.3,4,8.8,6.6c2.5,2.6,5.6,4.6,8.1,7.1
                        c0.6,0.6,1.3,1.2,1.8,2c1.9,1.5,3.2,3.5,4.7,5.3c0.9,1.1,1.3,2.4,1.4,3.8c0.5,5.3,0.8,10.5-2.9,15.2
                        C480.7,439.8,478.1,440.7,475.7,442z"></path><path class="st5" d="M417.1,365.3c5.9-1.2,11.8-2.6,17.8-3.7c8.3-1.5,16.6-2.8,24.8-4.6c3.1-0.7,3.1-0.6,3.3-3.6
                        c0-1-0.3-2,0.3-2.9c0,0.4,0.1,0.8,0,1.2c-0.2,1.1,0.1,1.9,1.4,2.2c1.3,0.4,2.2,1.3,2.7,2.5c0.9,2.1,0.1,3.5-2.3,3.9
                        c-1.5,0.2-3,0.6-4.5,0.8c-0.8,0.4-1.7,0.3-2.4,0.7c-4.8,1-9.7,1.6-14.6,2.6c-6.7,1.3-13.4,2.6-20.1,3.9c-0.9,0-1.8,0.3-2.7,0.5
                        c-0.9,0.2-1.8,0.4-2.6,0.7c-2.3,0.6-4.6,1.1-7,1.3c-1.2,0.1-2.4,0.1-3.5-0.6c-1.1-1.7-0.9-2.8,1-3.4
                        C411.5,366.1,414.2,365.4,417.1,365.3z"></path><path class="st13" d="M479.2,413.3c-3.3-2.8-6.7-5.5-9.8-8.5c-3.1-3-6.7-5.4-10.4-7.6c-1.8-0.2-3-1.4-4.5-2.2
                        c-5.2-3-10.9-4.7-17-4.9c-3-0.1-6,0.1-8.9,0.2c-2.6,0.1-5.2,0.1-7.8,0.2c-0.8,0-1.7,0.1-2.4-0.3c-0.5-0.4-0.8-0.9-0.2-1.4
                        c0.8-0.5,1.7-0.4,2.6-0.4c7.2-0.2,14.3-0.3,21.5-0.5c0.8,0,1.5,0,2.1,0.6c3,0.8,5.9,1.8,8.8,3c3.6,1.6,6.5,4.1,9.7,6.3
                        c3.5,2.4,7.1,4.7,10,7.7c1.8,1.8,3.5,3.7,5.5,5.7c0-0.9,0.1-1.7,0.1-2.5C478.7,410.2,479,411.8,479.2,413.3z"></path><path class="st14" d="M474.2,393c-1.2-2.3-2.3-4.6-3.5-6.8c-1.1-2.1-2.4-4-4.1-5.7c-2.3-2.4-4-5.1-5.3-8c1,0,2-0.1,3-0.1
                        c4.6,0.1,6.3,1.3,7.6,5.3c1.2,4,2.3,8.1,2.7,12.3C474.5,391,475.4,392.1,474.2,393z"></path><path class="st15" d="M423.3,368.1c9-1.7,17.9-3.5,26.9-5.2c2.7-0.5,5.3-0.9,8-1.3c0.5-0.1,1-0.5,1.2,0.3c-0.9,0.3-1.2,0.8-1,1.7
                        c0.2,1,0,2.1-1.2,2.7c-0.8,0.3-1.7,0.4-2.6,0.4c-6.9-0.1-13.7,1-20.6,1.1c-2.7,0.9-5.5,1-8.3,1.1
                        C424.9,368.7,423.8,369.2,423.3,368.1z"></path><path class="st16" d="M474.2,393c0.8-0.9,0.1-2,0.4-2.9c0.5,1.6,0.5,3.2,0.4,4.9C474.6,394.3,474.3,393.7,474.2,393z"></path><path class="st17" d="M459.4,361.9c-0.3-0.4-0.8-0.3-1.2-0.3c0.7-0.6,1.6-0.3,2.4-0.4C460.3,361.6,460,361.9,459.4,361.9z"></path><path class="st18" d="M418.5,390c5.6-0.1,11.2-0.2,16.7-0.4c7.3-0.2,14,1.6,20.1,5.2c1.3,0.8,2.5,1.6,3.8,2.3
                        c2.6,5.6,5.3,11.3,7.4,17.1c2.3,6.3,4.2,12.7,6.2,19.1c0.4,1.3,0.4,2.8,0.1,4.2c-0.6,3.2-0.5,3.5,2.5,4.4
                        c-12.6,1.2-25.2,1.7-37.8,2.1c-2.7,0.1-5.4,0.8-8.2,0.8c0.1-0.9,0.9-0.7,1.4-0.7c0.9,0.1,1.9,0,2.8,0.1c-2.4-0.1-4.7,0-7.1-0.6
                        c-4.8-1.1-7.7-4.2-10-7.9c-2.8-4.5-4.6-9.4-6.6-14.2c-0.6-1.4-0.8-2.8-0.8-4.3c-0.1-5.8-0.6-11.6,1-17.4c0.5-1.7,1-3.4,1.5-5.1
                        c0.4-1.6,1.4-2.9,2.7-3.9C415.5,389.9,416.9,389.3,418.5,390z"></path><path class="st18" d="M425.7,368.4c2.8-0.2,5.5-0.4,8.3-0.6c1.1,2.1,2.8,3.9,4,5.9c2.3,3.9,3.5,8.3,5.8,12.2
                        c0.4,0.6,0.8,1.2,1.2,1.8c0.8,1-0.3,0.5-0.6,0.7c-5.3,0.1-10.6,0.2-15.9,0.4c-3.5,0.1-6.9,0.2-10.4,0.2c-0.7,0.6-1.5,0.5-2.3,0.5
                        c-2.9,0.1-5.8,0.4-8.7,0.8c-3.2,0.4-5.4,2.1-6.9,4.7c-4.2,7.1-6.2,14.7-6.8,22.7c0,0.6,0.1,1.3-0.5,1.8c0,0-0.1,0.1-0.1,0.1
                        c-0.1,4.5-0.8,9,0.9,13.3c1.5,4.1,3.2,8.1,5.4,11.9c0.2,0.4,0.4,0.9,0.6,1.3c-1.9,0.4-3.8,0.2-5.7,0.2c-0.9,0-1.5-0.5-1.7-1.3
                        c-3.1-10.9-8.1-21.2-12.2-31.8c-1.6-4-3.3-8-5.3-11.7c0,2,0.2,4.2,0.5,6.3c0.4,3.3-0.3,6.7-0.2,10c0.1,6.7-1.6,13.3,0.1,20
                        c0.8,3.1-1.5,5.1-4.7,4.6c-0.2-0.1-0.3-0.3-0.2-0.5c0.7-0.1,1.4-0.2,2-0.4c1.4-0.6,2.3-1.3,1.9-3.1c-0.9-4.2-0.9-8.4-0.6-12.6
                        c0.6-8.8,1.1-17.7,0-26.5c-0.1-0.8-0.1-1.6-0.1-2.5c-0.2-7.3-0.8-14.5-1.6-21.7c-0.1-1.2-0.1-2.5-0.2-3.7c0.9-0.7,2-0.6,3.1-0.6
                        c8.2-0.2,16.5-0.4,24.7-0.6c1.9,0,3.8-0.1,5.7-0.4c0.9-0.2,1.9-0.2,2.7,0.4c3.7,0.9,7.1-0.5,10.6-0.9c1-0.3,2.1-0.2,3.1-0.6
                        C422.9,368.1,424.3,368.9,425.7,368.4z"></path><path class="st12" d="M392.9,419.5c0.2-7.2,1-29.6,15.2-29.9c3.3-0.2,6.7-0.8,10-0.6c0.1,0.3,0.3,0.7,0.4,1
                        c-3.6-0.1-5.5,2-6.3,4.4c-1.7,5.3-3.1,10.7-2.8,16.4c0.3,4.4-0.4,8.8,1.8,12.9c1.8,3.5,3,7.2,4.9,10.6c3.6,6.8,9.5,9.8,17.5,9.7
                        c0.3,0,0.6,0,1.4,0.1c-2.2,0.7-4.1-0.1-5.7,0.7c-5.3,0.1-10.6,0.4-16,0.3c-6.4,0-11.2-2.6-14.4-7.8
                        C395.6,431.8,393.7,425.8,392.9,419.5z"></path><path class="st9" d="M423.7,469.6c-0.2,0-0.4,0-0.6,0c1.7-5.8,3.5-11.6,5.7-17.2c0.4-1,0.7-1.9,1.8-2.4c2.3-1,4.8-0.8,7.2-1
                        c4.7-0.4,9.3-0.8,13.9-1.3c2-0.2,3.9-0.2,5.9-0.2c0.6,0,1.3,0,1.5,0.8c-3.5,1.9-7.5,2.9-10.9,4.9c-0.2,0.1-0.5,0.2-0.7,0.3
                        c-3,2-6.1,3.2-9.9,2.8c-0.3,0-0.6,0.2-0.9,0.2c-0.3,0.4-0.7,0.5-1.1,0.5c-2.4,0.1-3.5,1.3-4.2,3.3c-0.5,1.4-0.7,3-2,4.1
                        C428.2,466.9,425.6,467.9,423.7,469.6z"></path><path class="st19" d="M459.1,448.3c-2.4-0.6-4.8-0.3-7.1,0c-4.1,0.5-8.2,0.9-12.4,1.2c-3,0.2-6,0.8-9,0.6c0.9-2.8,3.1-3.1,5.8-3
                        c6.1,0.1,12.1-0.3,18.2-0.2c2.5,0,5-0.2,7.5,0.4C461.1,447.5,460.1,447.9,459.1,448.3z"></path><path class="st15" d="M407.8,370.1c-12,0.9-24.1,0.8-36.2,1.2c-0.2-1-0.3-2.1-0.5-3.1c0.1-0.8,0.8-0.8,1.5-0.7
                        c6.2,0.6,12.3-0.4,18.5-0.8c3-0.2,5.9-0.3,8.9-0.5c4.2-0.2,8.3-0.8,12.5-0.8c1.6,0,3.2-0.9,4.8-0.1c-2.5,0.6-5.1,1.3-7.6,1.9
                        C407.4,367.8,407.1,368.2,407.8,370.1z"></path><path class="st18" d="M371.9,448.2c-2.4-0.6-3.8-2.6-5.8-3.7c1.4-0.8,3.1-1.2,4.1-2.6c0,0.1,0,0.2,0,0.3
                        C370.4,444.3,371.3,446.2,371.9,448.2z"></path><path class="st11" d="M452.1,493.3c-1.3,2.2-2.9,4.2-4.9,6c-6.2,5.5-14.2,5.7-20.7,0.5c-1.7-1.4-3.2-2.9-4.5-4.7
                        c0-0.9,0.9-1.1,1.5-1.3c4.4-1.3,8.9-2.4,13.3-3.6c0.6-0.2,1.3-0.1,1.9,0c3.8,0.7,7.6,1.2,11.4,1.9
                        C451,492.2,452.1,492.1,452.1,493.3z"></path><path class="st20" d="M452.1,493.3c-0.3-0.6-0.8-0.6-1.4-0.7c-4-0.7-8.1-1.4-12.1-2c-0.5-0.1-1-0.1-1.5,0
                        c-4.6,1.2-9.1,2.5-13.6,3.7c-0.6,0.2-1.1,0.3-1.5,0.8c-0.8-1.1-1.5-2.3-2.3-3.4c-0.9-1.3,0.1-1.6,1.1-1.8c4-0.8,8-1.6,12-2.5
                        c2.4-0.5,4.7-1.6,7.2-1.5c4.7,0.2,9.4,0.7,14.1,1c1,0.1,0.7,0.6,0.5,1.1C454,489.8,453.3,491.7,452.1,493.3z"></path><path class="st21" d="M430.1,477.5c-1-1.9-2-3.9-3-5.8c0-0.6,0.5-0.9,1-1.2c6.3-4.1,12.2-8.6,18.8-12.3
                        c6.7-3.8,13.8-6.8,21.1-9.3c1.9-0.6,3,0,3.8,1.4c2,3.8,3.4,7.8,4.1,12c0.4,2.3-0.6,2.9-2.5,3.6c-4.2,1.4-8.6,2-12.7,3.4
                        c-6.7,2.3-13.7,3.3-20.6,4.8C436.6,474.9,433.1,475.7,430.1,477.5z"></path><path class="st21" d="M435.8,479.2c3.1-1.3,6.3-2,9.6-2.6c7.5-1.3,14.7-3.3,21.9-5.5c2.6-0.8,5.5-1,8-2.2c0.5-0.2,0.8-0.1,1,0.4
                        c0.5,1.4-0.2,2.6-1.7,3.1c-6.8,2.3-14,3.2-21,4.6c-5.3,1-10.6,1.4-15.9,2.1C437.1,479.2,436.4,479.1,435.8,479.2z"></path><path class="st9" d="M431.7,458.3c0.4-1.3,1.6-1.2,2.6-1.4c0.8-0.2,4.4-2.9,5.2-3c23.1-7.4,2,2.8,2,2.9c-1.7,1.2-3.3,2.3-5,3.5
                        c-2.1,1.4-4.1,2.9-6.2,4.3C420.1,472.8,431,460.4,431.7,458.3z"></path><path class="st22" d="M425.7,368.4c-1.3,0.6-2.8,0.2-4.2,0.5c-0.4,0.1-0.8,0.3-0.8-0.4c0.9-0.1,1.8-0.3,2.7-0.4
                        C424,368.7,424.9,368.2,425.7,368.4z"></path><path class="st23" d="M420.7,368.5c0.3,0.1,0.5,0.2,0.8,0.4c-1,0.6-2.1,0.3-3.1,0.4C419.1,368.7,419.9,368.7,420.7,368.5z"></path><polygon class="st24" points="530.6,225 467.7,226.2 467.2,208 530.1,206.8 			"></polygon></g></g></g><g id="Left_Leg"><g><path class="st25" d="M302.2,413.7c0,0-10.2-19.9-31.9-23.7c-0.2-1.5-0.9-3-0.9-3s6.7-26.2,11.9-35.8c5.3-9.6,23.1-21.7,39-21
                    c15.8,0.7,18.1,9,18,12.4C338.2,346,331.6,373.5,302.2,413.7z"></path><path class="st26" d="M273.1,390.2c3.7-11.4,9.9-33.8,13.5-32.1c1.9,0.9-1.5,6-11.7,32.6L273.1,390.2z"></path><path class="st27" d="M302.6,414.2c0,0,31.6-42.9,36.4-69.9c1.5-8.7-5.8-14.2-19.6-14.8c-17.7-0.7-34.4,12.8-38.6,21.5
                    c-4.1,8.7-10.4,28.8-11.5,35.1l0.7,1.6c1.6-7.5,8-28.2,12.3-36.6c4.3-8.4,22.2-20.4,37.2-19.8c14.9,0.6,19.2,6.8,17.8,12.8
                    c-1.4,6-6.1,27.4-35.3,68.9L302.6,414.2z"></path><path class="st28" d="M299.7,427.3c0,0,5.8-0.6,6.5-11.1c0.7-10.4-13.7-21-19.7-24.8c-6-3.8-18.5-5.3-18.5-5.3s-4.1-20-27.6-18.8
                    c-23.5,1.2-25.7,23.7-25.5,27.8c0.2,4.1,1.7,24.4,25.6,38.9c6,3.7,16.1,12.6,18,14.5c1.9,1.9,6.7,8.5,20,7.8
                    C291.7,455.7,295.2,446.3,299.7,427.3z"></path><path class="st29" d="M215.4,398.1c0,0-1.5-9.7,13.8-9.3c15.3,0.4,36.9,25.4,49.4,39.3c12.4,13.9,12.2,22,9.5,25.7
                    c0,0-1.9,2-11,2.5c-9,0.5-15-4-19-8.1c-4-4-17.3-14.2-21-16.6c-3.7-2.4-13.9-8.8-20.6-26.9C215.1,401.1,215.4,398.1,215.4,398.1z"></path><path class="st30" d="M265.6,386c-1.5-5-10.3-15.6-21.9-16.3c-11.6-0.8-17.5,4.5-16.4,7.2c2.2,5.9,19.7,0.7,28.2,3.1
                    c3.5,1,6.6,2.6,9.2,8.1C265.7,390.2,267.5,392.3,265.6,386z"></path><path class="st30" d="M269.1,389.8c0,0,9.7,1.8,16.4,6.5c6,4.2,9.6,8.3,11.7,10.6c2,2.3,1.7,0.1,0.2-1.8
                    c-1.6-1.9-6.4-7.5-10.9-10.2c-10.6-6.3-17.8-6.4-17.8-6.4L269.1,389.8z"></path><path class="st31" d="M300.2,427.9c0,0,7-3.4,6.6-11.7c-0.9-16.6-25-31.3-38.8-31l0.5,2.1c18.2,1.5,36.4,16.9,37,29.1
                    c0.4,8.2-5.6,10.7-5.6,10.7L300.2,427.9z"></path><path class="st31" d="M270.8,401.2c0-19.1-8.5-35.6-30.8-34.4c-16.2,0.8-26.5,12.1-25.6,29.9c0.7,14.5,8.8,27,27.5,39
                    c2.6,1.7,11.7,8.6,17.7,15c3.2,3.4,10.3,6.8,19.1,6.4c8.8-0.5,12.4-3,17.3-14.4c4.1-9.8,4.5-14.3,4.3-17.7
                    c-0.2-3.4-1-15.5-27.4-29.8c-1.8-1-1.9-0.2-0.1,0.8c23.3,13.2,26.2,23,26.5,29.4c0.3,5-2.5,11.9-4.6,16.9
                    c-3.5,8.1-6.7,12.7-16,13.2c-9.3,0.5-15-2.6-18.8-6c-3.7-3.4-9.9-9.8-17.5-14.8c-7.6-5-25.2-16.5-26.3-38
                    c-0.8-15.1,8.4-27.8,24.1-28.6c16.6-0.9,29,8.7,29.8,33C270.1,403.8,270.8,402.7,270.8,401.2z"></path></g></g><g id="Front_Bike"><g id="Body"><g><path class="st25" d="M280.6,181.9c0,0-2-0.1-5.6,0.8c-3.5,0.9-9,1.8-13.1,5.1c-4.1,3.3-8.5,8.1-13.2,15.3
                c-4.8,7.1-7.8,12-10.1,15.2c-2.3,3.2-3.5,3.8-5.2,4.3c-1.7,0.5-27.5,8.1-29.6,9.5c-2.1,1.4,8.4,24.1,8.4,24.1l16.9-3
                c0,0,17.2-1.3,21-1.9c3.8-0.6,10.2-1.2,11.3-1.8c1.1-0.6,4.8-3.8,5-3.9c0.1-0.1,2.1-7.9,2.1-7.9S291.4,184.7,280.6,181.9z"></path><path class="st32" d="M272.3,236.8c0,0-4.4,9.9-9.5,12.9c-4.4,3.4-29,4.9-29,4.9s-1,0,0-1c2-0.7,20.5-2.2,27.7-4.9
                c4-2.1,9.6-12.3,11-14C272.9,236.5,272.6,236.3,272.3,236.8z"></path><path class="st32" d="M282.4,180.7c0,0-12.9,1.6-19.7,6.9c-6.8,5.4-13,14.1-17.3,21.2c-4.2,7.1-6.2,10.6-9.2,12.9
                c-0.5,0.8,0.1,1,1.1,0.1c1-0.9,3.6-3.1,6.7-8.2c3.1-5.2,6.7-11.2,10.3-15.6c3.6-4.4,7.6-10.8,17.9-13.8
                C281.2,181.7,284.5,182,282.4,180.7z"></path><path class="st32" d="M240.3,219.8c0,0-33.8,10.4-37.3,11.6c1.1,0.7,2.8,0.2,3.2,0.1c0.4-0.1,9.4-2.9,12.8-3.9
                c3.4-1,19.8-6,21.4-6.9C240.5,220.6,241.2,219.7,240.3,219.8z"></path><g><g><path class="st25" d="M269.3,272.4c-10.7,38.7,3,83.6,72.8,93.5c45.9,6.5,72.4-26.1,71.4-47.4c-1-19.9-18.3-39.8-23.7-46.9
                    c-5-9.1-31.9-36.9-42.6-40.8c-10.8-4-32.5-6.2-47.8-0.5C277.5,238.5,269.3,272.4,269.3,272.4z"></path></g><g><defs><path id="SVGID_1_" d="M371.8,269.4l-39.9,4.3c0,0-11.3,7.1-28.5,4.7c-17.1-2.4-22.2-6.9-22.2-6.9l-12.4,1.4l-3.1,18.6
                      c0,0,15.4,14.7,39.9,18.2C364.6,318,371.8,269.4,371.8,269.4z M270.4,321.3c0,0,14.9,29.4,38.7,36.5l57.7-2.8
                      c10.7-4.7,29.9-14.5,35-37.1c1.8-8,3.7-23.1,3.7-23.1l-3.6-6.3l-13.3,9.5c0,0-2.7,30-47,38.9C323.9,340.5,292,342,270.4,321.3z
                      "></path></defs><clipPath id="SVGID_2_"><use xlink:href="#SVGID_1_" style="overflow:visible"></use></clipPath><g class="st33"><path class="st28" d="M269.2,272c-10.7,38.7,3,83.6,72.8,93.5c45.9,6.5,72.5-26.1,71.4-47.4c-1-21.2-20.7-42.9-23.7-46.9
                      c-5-9.1-31.9-36.9-42.6-40.8c-10.8-4-32.5-6.2-47.8-0.5C277.5,238.2,269.2,272,269.2,272z"></path></g></g><path class="st34" d="M410.1,335.8c2.5-8.7-58.1,36.8-104.6,8.5C258.8,316,266.9,281,266.9,281c-1.7,18.2-3.4,33.9,13.6,56.5
                  c17.7,16.6,33.4,25.7,56.4,26.4c16.6,3.2,31.2,3,46.4-3.9C398.6,353.2,407.7,344.2,410.1,335.8z"></path><path class="st34" d="M321.6,251.3c0,0,6.5,27.8,9.2,33.3c2,3.9,7.6,3.9,10.8,2.4c3.2-1.5,19.8-6.7,32.2-17.1
                  c11.2,1.7,16.8,2.8,16.8,2.8s-2.9-1.6-5.7-2.2c-2.8-0.6-11.3-2-11.3-2s-17.9,9.7-32.2,13c-5.9,1.3-16.5-30.9-16.5-30.9
                  L321.6,251.3z"></path><path class="st26" d="M287,282c-1.3,5.8-2.9,23.2-1.3,32.6c2.8,15.8-2.2,12-4.7-0.7c-2.5-12.7,1.2-27.1,3-33.1
                  C285.8,274.9,289.7,269.4,287,282z"></path><path class="st35" d="M332.9,186.3c0,0-5.4,6-6.6,8.8c-1.2,2.7-4,11.7-4,11.7s-1.7,24.2,1,33.8c2.7,9.6,2.1,9.3,2.1,9.3
                  s-10,1.9-13.8,1.9c-25.5,0-27.6-3-27.6-3l4.2-24.5c0,0,5.5-21,5.8-23.1c0.3-2.1,10.2-18,10.2-18l21.1-0.4L332.9,186.3z"></path><path class="st36" d="M321.5,251.3c0,0-4.1-23.7-1-41.1c0,0-8.1-6.3-9.6-7.4c-0.6-0.6-0.7-1.6-0.7-1.6s-1.4,0.7-3.5-0.6
                  c-2.3-0.3-4.3,0-5.6-1.9c-2.4,2-7.7,5.1-7.7,5.1l1.1-4l6.8-4.9l14.2,2.5l7.2,7.5c0,0-0.3,2-0.6,3.5c-0.2,1.5-2.5,21.6,2.7,42.2
                  L321.5,251.3z"></path><path class="st36" d="M311,199.3c0,0-3.3,22.6-3,31.6c1-7.3,3-25.4,3.8-29.7C311.5,199.1,311,199.3,311,199.3z"></path><path class="st36" d="M300.9,197c0,0-3.4,9.6-5.1,23.6c-0.1-8.5,4.2-23,4.2-23L300.9,197z"></path><path class="st37" d="M298.7,205.5c-0.4,3,1.4,5.8,4,6.2c2.6,0.4,5.1-1.8,5.5-4.9c0.4-3-1.3-5.8-4-6.2
                  C301.6,200.2,299.1,202.4,298.7,205.5z"></path><path class="st36" d="M296.6,222.2c-0.4,3,1.3,5.8,4,6.2c2.6,0.4,5.1-1.8,5.5-4.8c0.4-3-1.3-5.8-4-6.2
                  C299.5,217,297,219.2,296.6,222.2z"></path><g><path class="st35" d="M299.4,204.4c-0.4,3,1.3,5.8,4,6.2c2.6,0.4,5.1-1.8,5.5-4.8c0.4-3-1.3-5.8-4-6.2
                    C302.3,199.1,299.8,201.3,299.4,204.4z"></path></g><g><path class="st35" d="M297.6,221.3c-0.4,2.8,1.3,5.4,3.7,5.8c2.5,0.3,4.8-1.7,5.2-4.5c0.4-2.8-1.3-5.4-3.7-5.8
                    C300.3,216.4,298,218.5,297.6,221.3z"></path></g><path class="st25" d="M419.5,226.3c-3.5,0.7-4.8-0.7-8.2,0.2c-4.8,1.2-9.6,2.6-14.3,4.2c-3.9,1.4-8.7,2.7-11.8,5.5
                  c-1.2,1.1-2.1,2.3-2.7,3.6c-5.4-4.2-10.2-7-10.2-7s2.2,14,4.8,17.6c2.8,5.7,13,21.4,13,21.4s-11.7-3.4-16.2-3.6
                  c-6,3.5-21.5,10.7-35.7,13.8c-3.2,0.7-5-0.9-6.5-5.4c-1.5-4.5-10.5-34.3-11-41.3c-0.6-7-0.6-21.9,0.2-27.8
                  c0.6-4.5,3.6-13.2,7.2-18.1c0.4-0.5,1.7-1.1,2.1-1.6c0,0,1.6-2,1.4-0.4c0.6-0.7,0.5,0.2,1.1-0.2c0,0,0.1,0,0.1-0.1c0,0,0,0,0,0
                  c0.1-0.1,0.3-0.2,0.4-0.3c0.3-0.2,0.6-0.4,0.9-0.5c0,0,0,0,0,0c0.9-0.5,2.1-0.9,3.5-1.2c0,0,0,0,0,0c4.2-1,12.9-9.7,13.4-5.5
                  c0.7,5.8,3.9,3.6,4.9,3.6c0,0,0,0,0,0c0,0,0,0,0,0c0.7,0.1,1.5,0.1,2.2,0.2c1.2,0.1,2.3,0.3,3.3,0.5l0,0
                  c3.6,0.9,8.3,2.3,11.9,3.3c1.8,0.7,3.7,1.6,5.6,2.6c3.8,2,7.9,4.6,12.1,7.9c7.5,6.1,13.5,11,18.1,15.3
                  C414.6,218.1,418,222.3,419.5,226.3z"></path><path class="st26" d="M406.6,208.3c-6.8-5.6-26.9-15.3-34.8-18.1c-8-2.8-6.1-0.8,0.6,2c6.7,2.8,23.2,11.4,31.3,17
                  C411.9,214.8,412.5,213.2,406.6,208.3z"></path><linearGradient id="SVGID_3_" gradientUnits="userSpaceOnUse" x1="1680.0289" y1="332.8669" x2="1659.6294" y2="326.3357" gradientTransform="matrix(-0.9902 -0.1399 -0.1399 0.9902 2033.948 116.5615)"><stop offset="0" style="stop-color:#ea977d"></stop><stop offset="0.1328" style="stop-color:#d7826b"></stop><stop offset="0.7304" style="stop-color:#83251e"></stop><stop offset="1" style="stop-color:#620000"></stop></linearGradient><polygon class="st38" points="343.3,206.3 343.6,209.2 333.5,209.6 331.8,208.3 			"></polygon><linearGradient id="SVGID_4_" gradientUnits="userSpaceOnUse" x1="1686.3174" y1="365.8319" x2="1652.4598" y2="354.9918" gradientTransform="matrix(-0.9902 -0.1399 -0.1399 0.9902 2033.948 116.5615)"><stop offset="0" style="stop-color:#ea977d"></stop><stop offset="0.1328" style="stop-color:#d7826b"></stop><stop offset="0.7304" style="stop-color:#83251e"></stop><stop offset="1" style="stop-color:#620000"></stop></linearGradient><path class="st39" d="M339.8,216.3l2.6,1.2c-2.8,10.7-14.7,33.9-12,44.5c-1.1-8.1-1.4-9.2,1.7-19.8
                  C335.2,231.5,339.5,219.3,339.8,216.3z"></path><path class="st32" d="M379.2,189.6l-0.2,0.2l-0.2,0.2c-1.5-0.9-6.2-4.2-20.2-6h0c-0.1,0-0.2,0-0.3,0c-0.1,0-0.2,0-0.3,0
                  c0,0,0,0-0.1,0c-0.1,0-0.3,0-0.4-0.1c0.1-0.2,0.3-0.3,0.4-0.5v0c0.1,0,0.2,0,0.3,0c0,0,0,0,0,0c0.1,0,0.1,0,0.2,0
                  c0.2,0,0.4,0,0.6,0.1c0.9,0.1,1.7,0.2,2.5,0.4h0C373.1,185.7,379.2,189.6,379.2,189.6z"></path><path class="st40" d="M414.1,317.9L414.1,317.9c0,0.5,0,0.9,0.1,1.4C414.2,318.8,414.2,318.4,414.1,317.9z M412.9,318.6
                  c0,0.3,0,0.7,0,1C412.9,319.5,412.9,319.1,412.9,318.6L412.9,318.6z M269.5,273c-0.4-0.2-0.8-0.5-0.8-0.5
                  c-10.2,33.1,0.7,69.3,39.9,86.3l1-1.8C276.3,342.4,258.7,312.4,269.5,273z M391.1,272.8l-1.7-1c1.1,1.2,2.3,2.7,3.6,4.5l0.3-0.8
                  C392.5,274.4,391.8,273.5,391.1,272.8z"></path><path class="st32" d="M351.6,183.2c0,0-6.2,9.7-6.8,23.2c-6.8,1.3-12.1,2.2-12.1,2.2l7.7,6c-1.1,12.4-9.9,27.9-10.3,39.8
                  c-0.2,4.7,0.2,5.6,0.4,6.7c0.2,1.1,0,2.4-0.6,0.1c-0.6-2.3-0.8-5.2-0.6-7c1.4-14.6,9.3-26.8,9.7-39.8l-7.8-6.3l11.9-2
                  c0,0,1.4-14.1,7.9-22.9L351.6,183.2z"></path><path class="st32" d="M324.9,195.4c3.1-6,7-9.6,7-9.6l-0.6,0.1c0,0-3,2.6-5.9,7.1l-0.5,1.6L324.9,195.4z M320.3,206.7
                  c-4,29.8,4.9,49,11.4,72.7c0.9,3.1,3.8,4.1,7.5,3.1c3.7-1,17.8-4.6,33.1-14.8c7.9,1.2,13.9,2.8,17.3,4.2
                  c-13.5-20-15.3-23.6-18.7-39.9l-0.9-0.4c3.9,18.6,5.9,21.8,17,38.4c-6.3-1.7-12-3-14.9-3.1c-15.8,9.4-27.7,13.2-32.8,14.2
                  c-5.1,1-5.9,0-6.8-2.9c-7.1-24.7-15.2-42.7-11.2-72C321.1,206.5,320.7,206.6,320.3,206.7z"></path><g><path class="st25" d="M410.4,214.7c-0.1,0.1-0.1,0.1-0.2,0.2c-4.5,3.5-8.9,7.1-13.9,9.8c-1.9,1.8-4,3.3-5.7,4.7
                    c-0.9,0.7-1.8,1.1-2.7,1.4c-0.5,0.2-1.1,0.3-1.7,0.4c-0.4,2.2-1.1,4.2-2.5,6c-0.3,0.4-0.7,0.8-1.1,1l0.9,0.7
                    c0,0-0.5,0.3-1.1,0.2c5.3,1.5,6.7,3.8,10.9,8.7c4.2,4.9,3.8,11.8,3.4,14c-0.3,2.3-0.3,5.9-4.8,10.9c-5.1,4.4-12.4,2.4-13.9,1.9
                    c-1.5-0.4-2.5-1.4-2.5-1.4l-0.8-0.2l-0.8,0.9c1.4,0.9,3.3,2.8,7.6,3.4c4.3,0.6,18.7-2.1,25.6-4.5c7-2.4,14.4-13.5,16.5-28.2
                    C425.2,234,418.3,223.2,410.4,214.7z"></path><path class="st41" d="M394.1,249.8l0.4-0.5c0,0,3.5,5.3,2.4,12.9c-0.9,6.3-4.7,14.8-15.6,13.3c-4.9-0.7-5.9-2.1-5.9-2.1
                    L394.1,249.8z"></path><path class="st42" d="M392.5,269.6c0,0,4.3-5.8,3.8-15.8l-1.2-3.6l-1.3-1.8l0.5,2.4c0,0,1.6,6.6-0.2,11.5
                    c-1.8,4.8-4.6,8.3-4.6,8.3L392.5,269.6z"></path><linearGradient id="SVGID_5_" gradientUnits="userSpaceOnUse" x1="396.4002" y1="378.1822" x2="393.5929" y2="386.6532" gradientTransform="matrix(0.9902 0.1399 -0.1399 0.9902 47.9535 -163.4626)"><stop offset="0" style="stop-color:#fff"></stop><stop offset="8.770171e-02" style="stop-color:#f9f6f6"></stop><stop offset="0.2315" style="stop-color:#e9dddd"></stop><stop offset="0.4137" style="stop-color:#cfb5b5"></stop><stop offset="0.627" style="stop-color:#aa7d7e"></stop><stop offset="0.8636" style="stop-color:#7d3738"></stop><stop offset="1" style="stop-color:#600b0c"></stop></linearGradient><path class="st43" d="M394.8,269.2l-5,1.2c0,0-5,4.1-9.7,3.5c-4.8-0.6-3.9-0.8-3.9-0.8l-0.5,0.3c0,0-0.1,0.3,0.9,0.7
                    c1.1,0.4,3.2,1,6.7,1.5C386.7,276.1,393.3,273.5,394.8,269.2z"></path><path class="st26" d="M391.6,237.9c3.4-2.4,8-5,8.9-9.3c0.7-3.1,1.9-3.6,1.3,1.3c-0.5,4.2-3.7,7.1-6.4,8.8
                    C392.7,240.5,387.4,240.8,391.6,237.9z"></path><polygon class="st40" points="395,268.7 389.7,270.2 388.7,271.1 394.8,269.5 				"></polygon><path class="st32" d="M393,246.9c0,0,5.5,5.3,4,16c-1.5,10.3-7.2,13.9-15.6,12.7c-4.6-0.7-6.1-2.2-6.1-2.2l0.4,0
                    c0,0,2,1.3,5.8,1.8c6.6,0.9,13.4-2.1,14.9-12.3c1.5-11-3.4-15.4-3.4-15.4L393,246.9z"></path><path class="st32" d="M424.2,245.6c-1.8,13.1-6.9,26.3-23.7,30.2c-4,0.9-15.3,2.5-18.8,2c-5.1-0.7-7.9-3.7-7.9-3.7l0.1-0.5
                    c0,0,2.6,2.5,7.6,3.2c3.1,0.4,14.6-1.2,18.9-2.1c13.8-3,19.9-13.6,22.1-29c1.6-11.2-4.5-21-8.5-26.2c-0.8-1.1-1.6-2-2.1-2.6
                    c-9-10.8-21.8-19.8-29.1-24.5c-2.8-1.8-4.8-3-5.5-3.4c-0.1-0.1-0.1-0.1-0.2-0.2l0.6-0.1c0,0,6.3,3.4,13.9,8.7c0,0,0.1,0,0.1,0.1
                    c5,3.5,10.6,7.7,15.4,12.3c2.1,2,4.1,4.1,5.7,6.2C417.6,222.2,426,232.5,424.2,245.6z"></path><path class="st32" d="M381.4,239.2c0,0,8.8-2.1,15.7-8.4c1.5-1.4,1.3-0.6,0.2,0.4c-1.1,1-6,6.3-14,8.2
                    C382.4,239.5,381.4,239.2,381.4,239.2z"></path></g><path class="st44" d="M299.4,204.4c-0.4,3,1.3,5.8,4,6.2c2.6,0.4,5.1-1.8,5.5-4.8c0.4-3-1.3-5.8-4-6.2
                  C302.3,199.1,299.8,201.3,299.4,204.4z M300.2,204.5c0.4-2.5,2.4-4.3,4.6-4c2.2,0.3,3.7,2.6,3.3,5.1c-0.4,2.5-2.4,4.3-4.6,4
                  C301.3,209.3,299.9,207,300.2,204.5z"></path><path class="st44" d="M297.3,221.2c-0.4,3,1.4,5.8,4,6.2c2.6,0.4,5.1-1.8,5.5-4.8c0.4-3-1.3-5.8-4-6.2
                  C300.3,215.9,297.8,218.1,297.3,221.2z M298.2,221.3c0.4-2.5,2.4-4.3,4.6-4c2.2,0.3,3.7,2.6,3.3,5.1c-0.4,2.5-2.4,4.3-4.6,4
                  C299.3,226.1,297.8,223.8,298.2,221.3z"></path><path class="st40" d="M361.9,367.1l0.8-2c28.1-4.4,50.6-23.7,50.2-45.5c0,0,0,0,0,0c0-0.1,0-0.5,0-1.1
                  c-0.2-4.1-2.3-19.3-20.3-41.4l1.7-0.9c0,0,6.8,8.6,11.5,16.8c4.4,7.8,7.5,15.7,8.3,24.8c0,0.5,0.1,0.9,0.1,1.4c0,0,0,0,0,0
                  c0,0,0,0.1,0,0.1C415.1,345.2,390,363.2,361.9,367.1z"></path><path class="st40" d="M414.2,319.4C414.2,319.4,414.2,319.3,414.2,319.4C414.2,319.3,414.2,319.4,414.2,319.4z"></path><path class="st32" d="M414,219.5c-0.8-1.1-1.6-2-2.1-2.6c-9-10.8-21.8-19.8-29.1-24.5c3.4,1.7,6.3,3.5,8.9,5.1c0,0,0.1,0,0.1,0.1
                  c2.5,1.6,4.6,3.1,6.3,4.4c2.4,1.8,5.6,4.1,9.1,7.9C409.4,212.3,411.7,215.4,414,219.5z"></path><path class="st32" d="M382.8,239.6c-0.1,0.2-0.3,0.5-0.4,0.7c-0.9-0.7-1.9-1.4-2.9-2.1c-4.3-3-9.9-5.9-15.8-6.4
                  c-0.1,0-0.1,0-0.2,0c-3.1-0.3-2.2-0.7-0.8-0.9c0.7-0.1,1.5-0.1,2.1,0c7.1,0.9,11.2,3.6,17.5,8.5
                  C382.5,239.4,382.6,239.5,382.8,239.6z"></path><path class="st34" d="M274.8,280.3c0,0,0,4.6-3.2,3.4c-3.2-1.1-7.6-4.2-7.6-4.2l0.6-4.8L274.8,280.3z"></path><g><path class="st25" d="M298.7,181.9l-10.3-8.9c-2.8,1.5-5.4,5-7.3,7.4c-1.3,1.7-2.2,3.7-3.3,5.5c-1.7,8.8-3.9,20.2-5.8,31.9
                    c-4.3,26-7.7,53.1-7.8,54.1c-0.2,1.9,1.4,4.7,4.2,6.1c2.8,1.4,9.3,4.2,10.2,4.5c0.9,0.3,2.7,0.9,2.8-2.8
                    c0.1-1.9,3.2-28.2,7.6-52.6C293,203.5,298.7,181.9,298.7,181.9z"></path><linearGradient id="SVGID_6_" gradientUnits="userSpaceOnUse" x1="1601.6437" y1="326.951" x2="1612.6428" y2="327.2379" gradientTransform="matrix(-0.9922 -0.1243 -0.1243 0.9922 1916.6239 69.5464)"><stop offset="0" style="stop-color:#ea977d"></stop><stop offset="0.1328" style="stop-color:#d7826b"></stop><stop offset="0.7304" style="stop-color:#83251e"></stop><stop offset="1" style="stop-color:#620000"></stop></linearGradient><polygon class="st45" points="283.3,196.4 276,195 277.6,192.1 285.3,195 				"></polygon><linearGradient id="SVGID_7_" gradientUnits="userSpaceOnUse" x1="1595.3268" y1="401.0825" x2="1609.411" y2="401.4499" gradientTransform="matrix(-0.9863 -0.1651 -0.1651 0.9863 1926.1471 90.316)"><stop offset="0" style="stop-color:#ea977d"></stop><stop offset="0.1328" style="stop-color:#d7826b"></stop><stop offset="0.7304" style="stop-color:#83251e"></stop><stop offset="1" style="stop-color:#620000"></stop></linearGradient><path class="st46" d="M276.5,202.9l-1.4,1l-0.4,3.1c0,0-1.2,16.8,5.5,27.6c1,1.6,0.6,4,1.5,5.5c1.6,0.3-3.8-15.2-3.8-15.2
                    S275.5,209.8,276.5,202.9z"></path><path class="st47" d="M288.3,224.8l0.6,0.1c0,0,0-0.1,0-0.1c0.9-4.8,1.8-9,2.5-12.5c1.8-8.4,3.2-13.2,3.2-13.2l-0.7,0.2
                    c0,0-1.4,5-3,11.9c-0.4,1.6-0.8,3.3-1.2,5.1C289.3,218.7,288.8,221.7,288.3,224.8z M264.5,263.4c-0.3,3-0.5,6-0.7,9
                    c-0.2,3.3,2,4.4,4.6,5.9c2.6,1.5,7.2,3.8,9.2,4.5c2,0.7,3.9,1,4.2-1.7c0.1-0.5,0.2-1.9,0.3-4c0.1-1.3,0.2-2.8,0.4-4.5L281,273
                    l0,0c0,0.3-0.1,0.6-0.1,0.8c0,0.1,0,0.1,0,0.2c-0.1,0.8-0.2,1.6-0.2,2.4c0,0.1,0,0.2,0,0.2c-0.1,1.4-0.2,2.6-0.3,3.8
                    c-0.2,1.9-1,1.9-2.7,1.1c-3.5-1.5-8.5-4.1-10.2-5.2c-1.7-1.1-2.7-2.5-2.6-4.3c0-0.6,0.2-3.7,0.7-8.9L264.5,263.4z M270.3,223.5
                    l0.8,0.1c0.1-0.8,0.3-1.5,0.4-2.3c0.5-2.7,1.1-5.6,1.6-8.5c0.9-4.6-0.3-2.4-0.6-0.2c0,0-0.7,2.8-1.6,7.7
                    c-0.1,0.5-0.2,0.9-0.3,1.5C270.5,222.4,270.4,223,270.3,223.5z"></path><path class="st47" d="M284.6,195.1l-9.2,4.6c0,0-0.9,10.9,1.5,22.3c0,0.1,0,0.2,0,0.3c0,0.1,0,0.2,0.1,0.3c0,0,0,0,0,0
                    c0.3,1.5,1.3,6.3,2.7,8.4c1.6,2.5,2.9,5.8,2.9,7.6c0,1.8,0.5,1.6,0.5,1.4c0-0.2,0.4-3.8-2.1-8.7c-1.4-2.6-2.1-4.9-2.5-6.5
                    c-0.3-1.1-0.4-1.9-0.4-2.2c0,0,0-0.1,0-0.1c0-0.2-0.1-0.3-0.1-0.5c-2.1-12.7-0.6-22.1-0.6-22.1l9.3-4.7l-9.9-3.6
                    c5.1-13.9,13.3-19.1,13.3-19.1l-0.7-0.1c0,0-9.5,5.8-14.4,19.5C280.5,193.5,284.6,195.1,284.6,195.1z"></path><path class="st47" d="M281,273c0,0.3-0.1,0.6-0.1,0.9c0,0.1,0,0.1,0,0.2c-0.1,1.2-0.2,2-0.2,2.4c0,0.1,0,0.2,0,0.2
                    s0.6-0.2,1.4,0.6c0.3-2.3,0.4-4.5,0.7-6.5c4.5-31.8,3.9-33.5,8.7-58.4c0.1-0.4,0.2-0.9,0.3-1.3c0.1-0.5-0.4-0.5-0.8,0.1
                    c-0.4,1.6-0.8,3.3-1.2,5.1c-0.4,2.6-0.9,5.5-1.4,8.6c-2.5,15.8-5.6,37-7,46.6C281.2,272,281.1,272.5,281,273z"></path><path class="st47" d="M264.3,265c0,0,0.3,2.3,0.7,1.2c1.9-14,6.5-44.4,6.5-44.8c0-0.4-0.5-0.9-0.6-1c-0.1,0.5-0.2,0.9-0.3,1.5
                    c-0.1,0.6-0.2,1.1-0.3,1.7C267.6,238.8,267.5,240.1,264.3,265z"></path></g><g><path class="st48" d="M290.2,189.8c0,0-1.8,1.6-2.2,4.7c-0.4,3,1,6.4,1.6,7.4c0.6,1,2.1,1.3,4.5,0.4c2.4-0.9,5.9-4,7.1-5.1
                    l-0.4-0.5c-2.2,2-5,3.9-6.7,4.6c-1.7,0.7-3.3,0.9-4.3-0.9c-0.9-1.6-1.4-3.5-1.1-5.6c0.5-3.2,1.6-4.2,1.6-4.2L290.2,189.8z"></path><g><path class="st49" d="M324.8,186.9l-10.5,2.4l-12.2-2.5l-8.1-5.3c0,0-2.5,2.2-3.3,4.6c-0.8,2.3-0.6,4.2-0.6,4.2
                      s-1.5,2.1-1.8,3.9c-0.3,1.9,0.6,6.1,1.7,7.4c1.1,1.2,3.9,0.9,11-4.6c2.7,2.1,4,2,5.4,1.2c1.4,1,3.7,1,4.5,0.6
                      c0.4,1.8,0.7,2.2,0.7,2.2s6.8,5.6,8.9,6.5c2.1,0.8,3.5-0.5,4.3-3.1c0.9-2.6,1.9-6.8,1.4-9.2c2-4,2.4-6.1,1.5-8.1
                      C325.8,186.6,324.8,186.9,324.8,186.9z"></path><g><path class="st49" d="M323.8,188.6c2.2-0.1,3.8,0.2,3,2.9c-0.8,2.7-3.9,8.3-6.8,6.3c-3.4-2.4-8.7-3.1-7-5.3
                        C315.3,189.6,317.3,189.1,323.8,188.6z"></path><path class="st50" d="M323.7,188.9c2.2-0.1,3.7,0.2,2.9,2.8c-0.8,2.6-3.8,8.1-6.6,6.1c-3.2-2.3-8.4-3-6.8-5.1
                        C315.5,189.8,317.5,189.3,323.7,188.9z"></path><path class="st51" d="M323.6,189.1c2.1-0.1,3.5,0.2,2.8,2.7c-0.7,2.5-3.6,7.8-6.4,5.9c-3.1-2.2-8.1-2.9-6.5-5
                        C315.6,190,317.6,189.5,323.6,189.1z"></path><path class="st52" d="M323.6,189.4c2-0.1,3.4,0.2,2.7,2.6c-0.7,2.4-3.5,7.6-6.2,5.7c-3-2.1-7.8-2.8-6.3-4.8
                        C315.8,190.3,317.7,189.8,323.6,189.4z"></path><path class="st53" d="M323.5,189.6c2-0.1,3.3,0.2,2.6,2.5c-0.7,2.4-3.4,7.3-6,5.5c-2.9-2.1-7.6-2.7-6.1-4.6
                        C316,190.5,317.8,190,323.5,189.6z"></path><path class="st54" d="M323.4,189.9c1.9-0.1,3.2,0.2,2.5,2.4c-0.7,2.3-3.3,7.1-5.8,5.3c-2.8-2-7.3-2.6-5.9-4.5
                        C316.2,190.7,317.9,190.2,323.4,189.9z"></path><path class="st55" d="M323.3,190.1c1.8-0.1,3.1,0.2,2.5,2.4c-0.6,2.2-3.2,6.8-5.6,5.1c-2.7-1.9-7-2.6-5.7-4.3
                        C316.4,190.9,318,190.5,323.3,190.1z"></path><path class="st56" d="M323.3,190.3c1.8-0.1,3,0.1,2.4,2.3c-0.6,2.1-3,6.6-5.4,5c-2.6-1.8-6.7-2.5-5.4-4.2
                        C316.6,191.2,318.2,190.7,323.3,190.3z"></path><path class="st57" d="M323.2,190.6c1.7-0.1,2.9,0.1,2.3,2.2c-0.6,2-2.9,6.3-5.2,4.8c-2.5-1.8-6.5-2.4-5.2-4
                        C316.7,191.4,318.3,190.9,323.2,190.6z"></path><path class="st58" d="M323.1,190.8c1.6-0.1,2.8,0.1,2.2,2.1c-0.6,2-2.8,6.1-4.9,4.6c-2.4-1.7-6.2-2.3-5-3.9
                        C316.9,191.6,318.4,191.2,323.1,190.8z"></path><path class="st59" d="M323,191.1c1.6-0.1,2.6,0.1,2.1,2c-0.5,1.9-2.7,5.8-4.7,4.4c-2.3-1.6-5.9-2.2-4.8-3.7
                        C317.1,191.8,318.5,191.4,323,191.1z"></path><path class="st60" d="M322.9,191.3c1.5-0.1,2.5,0.1,2,1.9c-0.5,1.8-2.6,5.6-4.5,4.2c-2.2-1.5-5.6-2.1-4.5-3.5
                        C317.3,192.1,318.6,191.6,322.9,191.3z"></path><path class="st61" d="M322.9,191.6c1.4-0.1,2.4,0.1,1.9,1.8c-0.5,1.7-2.5,5.3-4.3,4c-2.1-1.5-5.4-2-4.3-3.4
                        C317.5,192.3,318.7,191.9,322.9,191.6z"></path><path class="st62" d="M322.8,191.8c1.4-0.1,2.3,0.1,1.8,1.8c-0.5,1.6-2.3,5-4.1,3.8c-2-1.4-5.1-1.9-4.1-3.2
                        C317.7,192.5,318.9,192.1,322.8,191.8z"></path><path class="st63" d="M322.7,192.1c1.3-0.1,2.2,0.1,1.7,1.7c-0.5,1.6-2.2,4.8-3.9,3.7c-1.9-1.3-4.8-1.8-3.9-3.1
                        C317.8,192.7,319,192.3,322.7,192.1z"></path><path class="st64" d="M322.6,192.3c1.2-0.1,2.1,0.1,1.6,1.6c-0.4,1.5-2.1,4.5-3.7,3.5c-1.8-1.2-4.5-1.7-3.7-2.9
                        C318,193,319.1,192.6,322.6,192.3z"></path><path class="st65" d="M322.6,192.6c1.2-0.1,2,0.1,1.6,1.5c-0.4,1.4-2,4.3-3.5,3.3c-1.7-1.1-4.3-1.7-3.4-2.7
                        C318.2,193.2,319.2,192.8,322.6,192.6z"></path><path class="st66" d="M322.5,192.8c1.1-0.1,1.9,0.1,1.5,1.4c-0.4,1.3-1.9,4-3.3,3.1c-1.6-1.1-4-1.6-3.2-2.6
                        C318.4,193.4,319.3,193,322.5,192.8z"></path><path class="st67" d="M322.4,193c1-0.1,1.7,0.1,1.4,1.3c-0.4,1.2-1.8,3.8-3.1,2.9c-1.5-1-3.7-1.5-3-2.4
                        C318.6,193.6,319.4,193.2,322.4,193z"></path><path class="st68" d="M322.3,193.3c1-0.1,1.6,0.1,1.3,1.2c-0.3,1.2-1.6,3.5-2.9,2.7c-1.4-0.9-3.5-1.4-2.8-2.3
                        C318.8,193.9,319.5,193.5,322.3,193.3z"></path><path class="st69" d="M322.3,193.5c0.9-0.1,1.5,0.1,1.2,1.2c-0.3,1.1-1.5,3.3-2.7,2.5c-1.3-0.8-3.2-1.3-2.6-2.1
                        C318.9,194.1,319.7,193.7,322.3,193.5z"></path><path class="st70" d="M322.2,193.8c0.8-0.1,1.4,0.1,1.1,1.1c-0.3,1-1.4,3-2.5,2.3c-1.2-0.8-2.9-1.2-2.3-2
                        C319.1,194.3,319.8,193.9,322.2,193.8z"></path><path class="st71" d="M322.1,194c0.8-0.1,1.3,0.1,1,1c-0.3,0.9-1.3,2.8-2.3,2.2c-1.1-0.7-2.6-1.1-2.1-1.8
                        C319.3,194.5,319.9,194.2,322.1,194z"></path><path class="st72" d="M322,194.3c0.7,0,1.2,0.1,0.9,0.9c-0.2,0.8-1.2,2.5-2.1,2c-1-0.6-2.4-1-1.9-1.6
                        C319.5,194.8,320,194.4,322,194.3z"></path><path class="st73" d="M322,194.5c0.6,0,1.1,0.1,0.8,0.8c-0.2,0.8-1.1,2.3-1.9,1.8c-0.9-0.5-2.1-0.9-1.7-1.5
                        C319.7,195,320.1,194.6,322,194.5z"></path><path class="st74" d="M321.9,194.8c0.6,0,1,0,0.8,0.7c-0.2,0.7-0.9,2-1.7,1.6c-0.8-0.5-1.8-0.8-1.5-1.3
                        C319.9,195.2,320.2,194.9,321.9,194.8z"></path><path class="st75" d="M321.8,195c0.5,0,0.8,0,0.7,0.6c-0.2,0.6-0.8,1.8-1.5,1.4c-0.7-0.4-1.5-0.7-1.2-1.2
                        C320,195.4,320.4,195.1,321.8,195z"></path><path class="st76" d="M321.7,195.3c0.4,0,0.7,0,0.6,0.6c-0.1,0.5-0.7,1.5-1.3,1.2c-0.6-0.3-1.3-0.7-1-1
                        C320.2,195.7,320.5,195.3,321.7,195.3z"></path></g><g><path class="st49" d="M306.5,188.3c-3.4-0.6-5.3,0.7-5.7,4.4c-0.3,2.9,2.3,1.2,4.1,1.1c1.8-0.1,3.1,2,4.3,2.2
                        C310.5,196.1,312.4,189.4,306.5,188.3z"></path><path class="st50" d="M306.5,188.4c-3.4-0.6-5.2,0.7-5.6,4.3c-0.3,2.9,2.2,1.2,4,1.1c1.8-0.1,3,1.9,4.2,2.1
                        C310.4,196,312.3,189.5,306.5,188.4z"></path><path class="st51" d="M306.5,188.5c-3.3-0.6-5.1,0.7-5.4,4.2c-0.3,2.8,2.2,1.2,3.9,1c1.7-0.1,2.9,1.9,4.1,2.1
                        C310.3,196,312.1,189.6,306.5,188.5z"></path><path class="st52" d="M306.5,188.7c-3.2-0.6-5,0.7-5.3,4.1c-0.3,2.7,2.1,1.1,3.8,1c1.7-0.1,2.8,1.8,4,2
                        C310.2,195.9,311.9,189.7,306.5,188.7z"></path><path class="st53" d="M306.5,188.8c-3.1-0.6-4.8,0.7-5.2,3.9c-0.3,2.7,2.1,1.1,3.7,1c1.6-0.1,2.8,1.8,3.9,2
                        C310.1,195.8,311.8,189.8,306.5,188.8z"></path><path class="st54" d="M306.4,188.9c-3-0.6-4.7,0.7-5,3.8c-0.3,2.6,2,1.1,3.6,1c1.6-0.1,2.7,1.7,3.8,1.9
                        C310,195.7,311.6,189.8,306.4,188.9z"></path><path class="st55" d="M306.4,189c-3-0.5-4.6,0.7-4.9,3.7c-0.3,2.5,2,1,3.5,0.9c1.6-0.1,2.6,1.7,3.7,1.9
                        C309.9,195.6,311.5,189.9,306.4,189z"></path><path class="st56" d="M306.4,189.1c-2.9-0.5-4.4,0.6-4.7,3.6c-0.3,2.5,1.9,1,3.4,0.9c1.5-0.1,2.6,1.7,3.6,1.8
                        C309.7,195.6,311.3,190,306.4,189.1z"></path><path class="st57" d="M306.4,189.3c-2.8-0.5-4.3,0.6-4.6,3.4c-0.2,2.4,1.8,1,3.3,0.9c1.5-0.1,2.5,1.6,3.5,1.8
                        C309.6,195.5,311.1,190.1,306.4,189.3z"></path><path class="st58" d="M306.3,189.4c-2.7-0.5-4.2,0.6-4.5,3.3c-0.2,2.3,1.8,1,3.2,0.9c1.4-0.1,2.4,1.6,3.4,1.7
                        C309.5,195.4,311,190.2,306.3,189.4z"></path><path class="st59" d="M306.3,189.5c-2.6-0.5-4.1,0.6-4.3,3.2c-0.2,2.3,1.7,0.9,3.1,0.8c1.4-0.1,2.3,1.5,3.3,1.7
                        C309.4,195.3,310.8,190.3,306.3,189.5z"></path><path class="st60" d="M306.3,189.6c-2.6-0.5-3.9,0.6-4.2,3.1c-0.2,2.2,1.7,0.9,3,0.8c1.4-0.1,2.3,1.5,3.2,1.6
                        C309.3,195.2,310.7,190.4,306.3,189.6z"></path><path class="st61" d="M306.3,189.7c-2.5-0.5-3.8,0.6-4.1,2.9c-0.2,2.1,1.6,0.9,2.9,0.8c1.3-0.1,2.2,1.4,3.1,1.6
                        C309.2,195.1,310.5,190.5,306.3,189.7z"></path><path class="st62" d="M306.2,189.9c-2.4-0.4-3.7,0.6-3.9,2.8c-0.2,2.1,1.6,0.9,2.9,0.8c1.3-0.1,2.1,1.4,3,1.5
                        C309.1,195.1,310.4,190.6,306.2,189.9z"></path><path class="st63" d="M306.2,190c-2.3-0.4-3.6,0.5-3.8,2.7c-0.2,2,1.5,0.8,2.8,0.7c1.2-0.1,2.1,1.3,2.9,1.5
                        C309,195,310.2,190.7,306.2,190z"></path><path class="st64" d="M306.2,190.1c-2.2-0.4-3.4,0.5-3.6,2.6c-0.2,1.9,1.5,0.8,2.7,0.7c1.2-0.1,2,1.3,2.8,1.4
                        C308.9,194.9,310,190.8,306.2,190.1z"></path><path class="st65" d="M306.2,190.2c-2.2-0.4-3.3,0.5-3.5,2.5c-0.2,1.9,1.4,0.8,2.6,0.7c1.1-0.1,1.9,1.2,2.7,1.4
                        C308.8,194.8,309.9,190.9,306.2,190.2z"></path><path class="st66" d="M306.1,190.3c-2.1-0.4-3.2,0.5-3.4,2.3c-0.2,1.8,1.4,0.7,2.5,0.7c1.1-0.1,1.9,1.2,2.6,1.3
                        C308.6,194.7,309.7,191,306.1,190.3z"></path><path class="st67" d="M306.1,190.5c-2-0.4-3.1,0.5-3.2,2.2c-0.2,1.7,1.3,0.7,2.4,0.6c1.1-0.1,1.8,1.2,2.5,1.3
                        C308.5,194.7,309.6,191.1,306.1,190.5z"></path><path class="st68" d="M306.1,190.6c-1.9-0.4-2.9,0.5-3.1,2.1c-0.2,1.6,1.3,0.7,2.3,0.6c1-0.1,1.7,1.1,2.4,1.2
                        C308.4,194.6,309.4,191.2,306.1,190.6z"></path><path class="st69" d="M306.1,190.7c-1.8-0.3-2.8,0.5-3,2c-0.2,1.6,1.2,0.7,2.2,0.6c1-0.1,1.6,1.1,2.3,1.2
                        C308.3,194.5,309.2,191.3,306.1,190.7z"></path><path class="st70" d="M306.1,190.8c-1.8-0.3-2.7,0.4-2.8,1.8c-0.2,1.5,1.2,0.6,2.1,0.6c0.9-0.1,1.6,1,2.2,1.1
                        C308.2,194.4,309.1,191.4,306.1,190.8z"></path><path class="st71" d="M306,190.9c-1.7-0.3-2.5,0.4-2.7,1.7c-0.2,1.4,1.1,0.6,2,0.5c0.9-0.1,1.5,1,2.1,1.1
                        C308.1,194.3,308.9,191.5,306,190.9z"></path><path class="st72" d="M306,191.1c-1.6-0.3-2.4,0.4-2.6,1.6c-0.2,1.4,1.1,0.6,1.9,0.5c0.8-0.1,1.4,0.9,2,1
                        C308,194.2,308.8,191.6,306,191.1z"></path><path class="st73" d="M306,191.2c-1.5-0.3-2.3,0.4-2.4,1.5c-0.2,1.3,1,0.5,1.8,0.5c0.8-0.1,1.4,0.9,1.9,1
                        C307.9,194.2,308.6,191.7,306,191.2z"></path><path class="st74" d="M306,191.3c-1.4-0.3-2.2,0.4-2.3,1.3c-0.1,1.2,1,0.5,1.7,0.5c0.8-0.1,1.3,0.8,1.8,0.9
                        C307.8,194.1,308.4,191.8,306,191.3z"></path><path class="st75" d="M305.9,191.4c-1.4-0.3-2,0.4-2.1,1.2c-0.1,1.2,0.9,0.5,1.6,0.4c0.7-0.1,1.2,0.8,1.7,0.9
                        C307.6,194,308.3,191.8,305.9,191.4z"></path><path class="st76" d="M305.9,191.5c-1.3-0.2-1.9,0.4-2,1.1c-0.1,1.1,0.9,0.5,1.5,0.4c0.7-0.1,1.1,0.7,1.6,0.8
                        C307.5,193.9,308.1,191.9,305.9,191.5z"></path></g><g><path class="st67" d="M296.9,183.7c-2.3-1.3-4.7-0.2-5.4,2.9c-0.8,3.1-0.1,5.8,3.9,5.2c4.1-0.5,4.1-1.3,4.5-3.6
                        C300.2,186,299.1,185,296.9,183.7z"></path><path class="st68" d="M297,184.2c-2.1-1.2-4.3-0.2-5,2.7c-0.7,2.9-0.1,5.3,3.6,4.8c3.7-0.5,3.8-1.2,4.2-3.3
                        C300.1,186.3,299,185.4,297,184.2z"></path><path class="st69" d="M297,184.7c-1.9-1.1-3.9-0.2-4.6,2.5c-0.7,2.6-0.1,4.9,3.3,4.4c3.4-0.4,3.5-1.1,3.8-3
                        C299.9,186.6,298.9,185.8,297,184.7z"></path><path class="st70" d="M297.1,185.2c-1.8-1-3.6-0.2-4.2,2.2c-0.6,2.4-0.1,4.4,3,4c3.1-0.4,3.2-1,3.5-2.8
                        C299.7,186.9,298.8,186.2,297.1,185.2z"></path><path class="st71" d="M297.2,185.7c-1.6-0.9-3.2-0.1-3.8,2c-0.5,2.2-0.1,4,2.7,3.6c2.8-0.4,2.9-0.9,3.1-2.5
                        C299.5,187.2,298.7,186.6,297.2,185.7z"></path><path class="st72" d="M297.2,186.2c-1.4-0.8-2.9-0.1-3.4,1.8c-0.5,1.9-0.1,3.5,2.4,3.2c2.5-0.3,2.5-0.8,2.8-2.2
                        C299.3,187.6,298.6,186.9,297.2,186.2z"></path><path class="st77" d="M297.3,186.6c-1.2-0.7-2.5-0.1-2.9,1.6c-0.4,1.7-0.1,3.1,2.1,2.8c2.2-0.3,2.2-0.7,2.4-1.9
                        C299.1,187.9,298.5,187.3,297.3,186.6z"></path><path class="st78" d="M297.4,187.1c-1.1-0.6-2.1-0.1-2.5,1.3c-0.4,1.4-0.1,2.7,1.8,2.4c1.9-0.2,1.9-0.6,2.1-1.7
                        C299,188.2,298.4,187.7,297.4,187.1z"></path><path class="st74" d="M297.5,187.6c-0.9-0.5-1.8-0.1-2.1,1.1c-0.3,1.2,0,2.2,1.5,2c1.6-0.2,1.6-0.5,1.7-1.4
                        C298.8,188.5,298.3,188.1,297.5,187.6z"></path><path class="st75" d="M297.5,188.1c-0.7-0.4-1.4-0.1-1.7,0.9c-0.2,1,0,1.8,1.2,1.6c1.2-0.2,1.3-0.4,1.4-1.1
                        C298.6,188.8,298.2,188.5,297.5,188.1z"></path><path class="st76" d="M297.6,188.6c-0.5-0.3-1.1,0-1.3,0.7c-0.2,0.7,0,1.3,0.9,1.2c0.9-0.1,1-0.3,1-0.8
                        C298.4,189.1,298.1,188.9,297.6,188.6z"></path></g><path class="st26" d="M326.6,190.2c-0.3,2.5-2.3,6.3-4.2,7.4c-1.9,1.1-2.7-0.5-4.6-1.5c-1.9-1-3.5-1.5-4.2-1.6
                      c-0.7-0.1-1.2-1.4,1.6-0.8c2.8,0.6,5.5,3.7,7.7,1.3c2.2-2.3,2.7-4,2.8-4.6C325.8,189.8,326.8,188.3,326.6,190.2z"></path><path class="st26" d="M308.4,195.1c-1-0.6-3.9-1.1-5.5-0.8c-1.6,0.3-2.3,0-0.5-1c1.9-1,4.6-0.9,6.4,1.1
                      C310.7,196.4,308.9,195.5,308.4,195.1z"></path><path class="st26" d="M299.5,188.4c-0.5,1.4-0.9,3.2-3.1,3.2c-2.2,0.1-4.5-0.5-4.6-1.1c-0.1-0.5,0.5-0.4,1.8-0.2
                      c1.3,0.2,3.4,0.2,4.4-0.9C298.8,188.3,300.1,186.7,299.5,188.4z"></path><path class="st48" d="M328.2,187.4c0.4,2.4,0.2,8.4-5.7,11.5c-1.7,0.9-1.3,0.3-0.1-0.5c1.2-0.8,6-4.9,5.3-11.1L328.2,187.4z"></path><path class="st48" d="M324.5,186.8c0,0-8.4,1.4-10.7,2.5c-1.4,1.1-2.9,3.9-3.1,5.4c-0.4,2.8-0.1,4.3,0.5,5.8
                      c0.5,1.3,3.9,4,8.9,7c1.6,1,2.9,0.5,4-1.1c1.1-1.6,2.9-5.6,2.4-11.2l-0.4,0.4c0.2,1.3-0.2,4.4-1.1,7c-0.7,2.2-1.4,3.3-2.1,4.1
                      c-0.7,0.9-2,0.3-3.1-0.3c-1.1-0.6-6.3-3.9-7.8-5.7c-1.4-2.8-1.3-7.5,2.3-11.3c4.1-0.8,11.9-2.4,11.9-2.4L324.5,186.8z"></path><path class="st48" d="M311.1,194.5c0,0,2.8,0,4.6,1.7c1,1-0.1,0.6-0.6,0.2c-0.5-0.3-2.6-1.4-4.2-0.8
                      C310.8,195,311.1,194.5,311.1,194.5z"></path><path class="st48" d="M310.9,199c0,0-1.1,0.7-2.9,0.4c-1.8-0.3-2.6-1.8-2.7-3.1c-0.1-1.3,0.3-0.7,0.5,0
                      c0.2,0.7,1.1,2.2,2.5,2.4c1.3,0.2,2.5-0.3,2.5-0.3L310.9,199z"></path><path class="st48" d="M306.4,198.5c0,0-1.7,0.8-3.3,0.1c-1.6-0.7-4.2-2.7-3.7-6.2c0.5-3.4,2.7-5.3,2.7-5.3l0.3,0.3
                      c0,0-1.8,1.9-2.2,5c-0.4,3.1,1.8,4.8,2.9,5.5c1.4,0.9,3.1,0.1,3.1,0.1L306.4,198.5z"></path><path class="st48" d="M299.6,193.7c0,0-1.2-1-2.5-1c-1.4,0-0.5-0.3,0.4-0.4c0.9-0.1,1.8,0.3,2.3,0.8
                      C299.8,193.4,299.6,193.7,299.6,193.7z"></path><path class="st48" d="M294.5,181.3c-2.6,1.2-4.2,4-4.6,6.7c-0.4,2.7,0.3,4.6,2.8,5.4c1.3,0.4,1.2,0.1,0.1-0.4
                      c-1.1-0.5-2.5-1.6-2.1-4.8c0.7-5.1,3.9-6.7,3.9-6.7L294.5,181.3z"></path></g></g></g><path class="st40" d="M308.1,356.4c0,0,19.4,6,30.4,7.3c-0.6,1.6-1.3,2.1-1.3,2.1s-19.4-2.8-28.8-7
                C308.5,358.8,306.1,356,308.1,356.4z"></path><path class="st32" d="M358.7,184L358.7,184c-0.2,0-0.4,0-0.7-0.1c0,0,0,0-0.1,0c-0.1,0-0.3,0-0.4-0.1c-1.7-0.2-4,0.1-4.9-0.1
                c-0.9-0.2-2.1-4.3-2.1-4.3l0.5-0.3c0,0,1.2,3.8,1.6,4c0.4,0.2,2.7-0.1,3.3,0c0.4,0,1.2,0.1,1.9,0.2c0.1,0,0.2,0,0.3,0
                c0.1,0,0.1,0,0.2,0c0.3,0,0.6,0.1,0.6,0.1s0,0,0,0C359.2,183.5,359.4,184,358.7,184z"></path></g><g id="Right_Hand"><g><path class="st35" d="M213.9,240.8c-2-6-11.3-14.1-21.1-10.8c-4.3,1.5-5.7,2.6-5.7,2.6s-5.1-0.1-10.4,1.7
                  c-5.3,1.8-11.5,4.7-16.5,14.8c0,0,0,0,0,0c-0.6,2.9-1.6,5.6-1.9,8.6c-0.2,2.6,0,5.2,0.3,7.8c0,0,0.1,0,0.1,0s0.4,6.5,6.2,6.5
                  c4.1,0,5.9-2.2,5.9-2.2s0.9,3.2,1.6,4.5c0.7,1.3,2.3,3.2,6.6,2.9c4.3-0.3,6.3-3.6,6.3-3.6s2.3,3.7,8.2,2.3
                  c5.9-1.4,9.2-5.5,8.8-12.4c0.9-0.6,1.7-1.3,1.7-1.3s1.1,0.2,2.9-0.4C208.6,261.3,219,255.9,213.9,240.8z"></path><path class="st79" d="M208.8,247.5c-1.4-5.3-7.1-1.3-11.3,2.7c-4.3,4.1-6.3,10.5-6,16c0.3,5.5,4.6,5.5,5.5,2
                  c0.9-3.5,0.7-2.5,0.7-2.5s1.9,0.1,6.3-3.4C208.5,258.8,210,252.3,208.8,247.5z"></path><path class="st79" d="M200.1,265c-0.7,2.9-2.6,10.5-9,11.1c5.8,0.4,10.8-2.2,11.3-12.3C200.9,264.5,200.1,265,200.1,265z"></path><path class="st79" d="M208.9,246.8c-1.1-4.2-1.2-15.4,3.6-9.2c4.8,6.2,3.9,24.5-8.3,24.5C207.1,258.8,211,254.8,208.9,246.8z"></path><path class="st79" d="M185.3,253.6c1.1-3-0.4-3.9-2.8,1.3c-2.4,5.2-4.5,14.2-3,18.4c1.4,4.2,4.1,2.9,5.9,0.5
                  c-1.3-1.5-1.6-2.3-2.2-4C182.6,268.1,182.2,262,185.3,253.6z"></path><path class="st79" d="M172.2,251.5c2.5-5.1-0.3-2.5-2.4,0.6c-2.9,4.3-8.2,24.8,1,17.8C169,261,170.5,255,172.2,251.5z"></path><path class="st44" d="M186.8,232.6c0,0,1.7-1.5,6.1-3c5.2-1.8,17.5-0.7,21.6,11.4c4.1,12.1-2.5,19.4-7,21
                  c-2.2,0.8-3.5,0.7-3.5,0.7l0.3-0.5c0,0,1.5-0.2,3-0.8c5.4-1.8,9.6-10.3,6.2-20.1c-3.4-10.2-14.2-13.3-20.3-11.2
                  c-4.2,1.4-5.7,2.5-5.7,2.5L186.8,232.6z"></path><path class="st44" d="M197.6,265.6c0,0,15.7-4.4,9.8-21.9c-2.4-7-15.4-13.9-30.3-8.8c-13.3,4.5-18.3,15.4-18.6,24
                  c-0.2,7.2,1.4,11.8,5.4,12.6c4,0.8,6.7-1.7,6.7-1.7l0.1,0.6c0,0-3,2.7-7,2c-5-0.9-6.2-6.9-6-13.7c0.2-6.8,3.8-19.4,19.1-24.6
                  c13.3-4.5,28.5-0.4,31.8,9.2c6.1,17.9-11,23-11,23L197.6,265.6z"></path><path class="st44" d="M197.5,262.8c0.7,2.6,0.4,4.6-0.4,5.9c-0.8,1.3-0.9,0.8-0.6-0.1c0.3-0.8,1.3-2.7,0.4-5.5
                  C196.3,261.1,197.2,261.9,197.5,262.8z"></path><path class="st44" d="M202.5,263.6c0,0,0,2.5-0.3,4.3c-0.6,3.2-2.2,6.9-6.2,8.2c-6.2,2.1-11.1,0-13-5.6c-2.4-7.1,1.5-15.4,2-16.7
                  c0.5-1.3,1.1-0.9,0.5,0.2c-0.5,1.2-3.8,10.3-1.8,16.2c1.7,5,6,6.8,11.8,4.8c4.3-1.5,5.9-6.5,6.1-8.1c0.2-1.6,0.3-3.1,0.3-3.1
                  L202.5,263.6z"></path><path class="st44" d="M172,251.2c-1.6,3.3-4.1,11.5-0.8,21.5c1.9,5.6,5.5,5.9,8.3,5.4c4.7-0.8,5.9-4.1,5.9-4.1l-0.5-0.3
                  c0,0-1.5,2.4-5.7,3c-3.6,0.5-6-0.8-7.2-4.3c-2.1-6.2-2.8-12.1,0.5-20.9C173.1,250,172.5,250.2,172,251.2z"></path></g></g><g id="Right_Leg"><g><path class="st25" d="M372.3,425.1c0,0-14.8-16.8-36.7-15.1c-0.6-1.4-1.6-2.7-1.6-2.7s0-27,2.7-37.6c2.7-10.6,17.1-26.7,32.6-30
                  c15.5-3.3,19.8,4.3,20.5,7.6C390.5,350.6,390.8,378.9,372.3,425.1z"></path><path class="st26" d="M338.2,409.4c0.7-11.9,1.2-35.2,5.2-34.4c2,0.4,0,6.2-3.3,34.4L338.2,409.4z"></path><path class="st27" d="M372.8,425.4c0,0,20.1-49.4,18-76.7c-0.7-8.8-9.1-12.3-22.6-9.5c-17.3,3.6-30.2,20.9-32.1,30.3
                  c-1.9,9.5-3,30.5-2.5,36.9l1,1.4c-0.3-7.7,0.8-29.3,2.9-38.5c2.1-9.2,16.5-25.3,31.2-28.4c14.6-3.1,20.3,1.8,20.4,8
                  c0.1,6.2,0.8,28-17.2,75.5L372.8,425.4z"></path><path class="st28" d="M370.1,444.1c0,0,5.7-1.2,5.3-11.7c-0.4-10.4-15.8-19.4-22.2-22.6c-6.4-3.2-18.9-3.3-18.9-3.3
                  s-6.1-19.5-29.4-15.8c-23.3,3.7-23.1,26.3-22.4,30.3c0.6,4.1,4.3,24.1,29.5,36c6.4,3,17.3,10.8,19.4,12.5
                  c2.1,1.7,7.5,7.7,20.7,5.6C365.1,473.1,367.6,463.4,370.1,444.1z"></path><path class="st29" d="M283.2,423.8c0,0-2.5-9.5,12.7-10.7c15.3-1.2,39.4,21.4,53.2,33.9c13.8,12.6,14.5,20.6,12.1,24.6
                  c0,0-1.7,2.2-10.6,3.6c-8.9,1.4-15.3-2.4-19.7-6c-4.4-3.6-18.7-12.3-22.6-14.3c-3.9-2-14.7-7.3-23.3-24.6
                  C283.3,426.9,283.2,423.8,283.2,423.8z"></path><path class="st30" d="M331.9,406.6c-2-4.8-11.9-14.4-23.5-13.9c-11.6,0.5-16.9,6.3-15.6,8.9c2.9,5.6,19.7-1.4,28.4,0.2
                  c3.6,0.7,6.8,1.9,10,7.1C332.4,410.7,334.4,412.6,331.9,406.6z"></path><path class="st30" d="M335.8,410c0,0,9.8,0.7,17,4.7c6.4,3.5,10.4,7.2,12.7,9.3c2.3,2,1.7-0.1,0-1.9c-1.7-1.8-7.2-6.8-11.9-9
                  c-11.2-5.1-18.3-4.5-18.3-4.5L335.8,410z"></path><path class="st31" d="M370.7,444.6c0,0,6.6-4.1,5.4-12.3c-2.6-16.4-28.1-28.5-41.8-26.8l0.7,2c18.2-0.4,38,13,39.9,25.1
                  c1.3,8.1-4.4,11.2-4.4,11.2L370.7,444.6z"></path><path class="st31" d="M338.7,421.2c-2-19-12.2-34.5-34.2-31c-16,2.5-25.1,14.8-22.3,32.4c2.3,14.3,11.6,25.9,31.5,35.9
                  c2.8,1.4,12.5,7.3,19.2,13c3.6,3.1,10.9,5.7,19.7,4.3c8.7-1.4,12-4.3,15.6-16.1c3.1-10.1,2.9-14.7,2.4-18
                  c-0.5-3.4-2.6-15.3-30.4-26.7c-1.9-0.8-1.9,0,0,0.8c24.6,10.7,28.4,20.1,29.4,26.4c0.8,4.9-1.2,12.1-2.8,17.3
                  c-2.6,8.4-5.3,13.3-14.5,14.8c-9.2,1.5-15.2-1-19.3-4c-4.1-3-10.9-8.7-19-12.8c-8.1-4.1-26.8-13.8-30.2-35
                  c-2.4-14.9,5.4-28.6,21-31c16.5-2.6,29.8,5.6,33.1,29.7C338.2,423.8,338.8,422.6,338.7,421.2z"></path></g></g><g id="Head"><g><g><path class="st80" d="M368.8,131.3c0,0,5.4-17.5-3.4-31.4c-8.8-14-13.7-20-33.3-26.2c-6-0.9-22.9-2.6-37.9,4.6
                    c-14.9,7.1-19.7,16-23.5,25.1c-1.8,5.7-3.2,13.2-2.8,22.7c-3.1-0.7-10,0.6-12.4,8.1c-2.3,7.5-2.8,22.4,11.8,37.4
                    c10.1,10.3,18.5,13.2,26.3,18.6c6.7,5.8,18,8.6,34.2-2.4c5.1-0.1,26.4-9.7,37-18.5c9.8-8.2,14.7-12.8,13.1-23.1
                    C376.2,133.3,368.8,131.3,368.8,131.3z"></path></g><path class="st35" d="M308.3,58.3c0,0-11.1-2.3-14.9-15.1c-3.8-12.8,4.4-19.7,15.9-21c5.2-0.6,23.3,6.9,36,22.9
                  c6.1,0,23.2,0.7,29.8,6.1c6.6,5.4,9.9,10.4,7.3,19.6c-2.6,9.2-14.9,10.1-19.2,10.2c-4.2,0.1-4.5-1.5-4.5-1.5l-4.9,7.8L306,75.8
                  C306,75.8,308.3,68.1,308.3,58.3z"></path><path class="st81" d="M291.9,40.3c0,0-0.1-5.4,5.8-6.9c5.9-1.5,19.6-0.1,39.4,18.2c9.4,6.1,12.8,7.6,17.6,6.5
                  c5-1.1,19.2,0.1,22.5,9.6c1.7,4.3,0.7,8.1-0.5,9.2c-1.2,1.1-8.3,6.1-18.6,2.9c-2.7,3.7-4.4,6.4-4.4,6.4l-47-11.3l0.9-16.9
                  c0,0-6.8-2.5-10.7-7.5C293,45.7,292.6,43.9,291.9,40.3z"></path><g><path class="st82" d="M333.9,150.7c-2.1-3.1-0.9-2.3-0.1-1.4c1,1.2,4,2,6,2.2c2,0.2,0.9,1.5-2.4,0.9
                    C335.7,152.1,334.1,151,333.9,150.7z"></path></g><g><path class="st82" d="M279.1,143.8c1.3-1,1.3-1.5,0.3-1.1c-1.5,0.5-3.6,1.2-5.5,0.5c-1.7-0.6-1.4,0.7,1.7,1.3
                    C277.2,144.7,278.8,144,279.1,143.8z"></path></g><path class="st35" d="M297.2,135.8c0,0,8.2-17.3,1.6-27.9c-4.2-6.6-7.8-7.6-11.3-6.9c-3.5,0.7-6.9,2.8-9.1,6.8
                  c-2.2,4-4,9-3.1,15.7c0,0-0.8,5.4,0.4,5.8C277.4,129.4,292.3,133.1,297.2,135.8z"></path><path class="st35" d="M341.6,134.3c0,0,6-14.6-0.5-25.2c-4.2-6.6-9.3-7.2-12.8-6.5c-3.5,0.7-6.9,2.8-9.1,6.8
                  c-2.2,4-4.2,9.2-3.4,15.9c0,0,1.7,10.8,2.6,12.1C327.7,134.5,336.7,134.1,341.6,134.3z"></path><path class="st83" d="M315.5,171.7c0,0-3.2,2.6-6.9,3.5c-3.7,0.9-9.4,1.5-13.8-2.8c-0.6-0.7-0.9-0.3-0.3,0.4
                  c0.6,0.7,4.6,5.8,11.9,4.7c4.5-0.9,7.7-3.5,9.3-5.6c0.2-0.2,0.2-0.3,0.2-0.4C315.7,171.5,315.5,171.6,315.5,171.7z"></path><path class="st83" d="M299.1,141.7c0,0-0.3,1.2,0.5,2.4c0.8,1.2,3.2,2.3,4.8,2.2c1.2-0.1,4.3-0.6,6.2-1.8c0.6-0.3,0.6-0.1,0.4,0.2
                  c-0.1,0.3-2.6,3.3-6.4,3.6c-3.8,0.3-5.2-1.8-5.7-2.6c-0.5-0.8-0.9-1.6-0.2-4C299,141.3,299.1,141.4,299.1,141.7z"></path><path class="st84" d="M297.2,72.3"></path><g><path class="st85" d="M316.3,164l10.3-7.1c0,0-9.1,2.2-13.4,2.7c-4.2,0.5-18.1,1.1-28-6.7l0.2,1.1l9.1,10.9c0,0,4.8-4.4,11.4-2.1
                    C307.8,161.9,310.4,161.1,316.3,164z"></path><linearGradient id="SVGID_8_" gradientUnits="userSpaceOnUse" x1="1529.0806" y1="-221.8035" x2="1569.6307" y2="-221.8035" gradientTransform="matrix(0.9491 0.3157 -0.3157 0.9491 -1235.9847 -119.6099)"><stop offset="0" style="stop-color:#fff"></stop><stop offset="0.1807" style="stop-color:#fcfcfc"></stop><stop offset="0.3162" style="stop-color:#f2f3f3"></stop><stop offset="0.4369" style="stop-color:#e2e3e3"></stop><stop offset="0.5491" style="stop-color:#cbcccd"></stop><stop offset="0.6553" style="stop-color:#aeafb0"></stop><stop offset="0.7571" style="stop-color:#8a8c8c"></stop><stop offset="0.8554" style="stop-color:#5f6162"></stop><stop offset="0.9485" style="stop-color:#2e3233"></stop><stop offset="1" style="stop-color:#101415"></stop></linearGradient><path class="st86" d="M316.3,164l10.3-7.1c0,0-9.1,2.2-13.4,2.7c-4.2,0.5-18.1,1.1-28-6.7l0.2,1.1l9.1,10.9c0,0,4.8-4.4,11.4-2.1
                    C307.9,162,310.4,161.1,316.3,164z"></path><g><path class="st87" d="M293.9,165.5c0,0,4.8-5.2,11.9-2.6c3.8-1.3,7.5-1.1,10.9,1.5c-4.3,3.2-9.9,7.6-16.4,5.4
                      C295.3,168.1,293.9,165.5,293.9,165.5z"></path></g><path class="st88" d="M308.5,161.8c-1,0.2-1.9,0.5-2.8,0.9c-7.1-2.4-11.3,2.2-11.3,2.2l0.2,0.3c5.1-3.9,9.9-2.6,10.8-2.3
                    c-1.2,0.7-2.1,1.5-2.9,2.6c0,0,2.4-2.6,6-3.1c3.6-0.5,7.6,1.8,7.6,1.8l0.6-0.5C316.8,163.8,312,161.1,308.5,161.8z"></path></g><g><path class="st25" d="M369.4,130.5c0,0-8.1-3.5-20.3,4.2c4.6-17.2,2.8-22.6,0.3-28.5c-2.5-5.9-11.5-15.4-23.3-13.5
                    c-11.8,2-18.7,17.3-18.7,17.3s-4.5-23.3-21.9-17.3c-11.3,4.1-14.6,16.3-15.4,22.2c-0.8,6-0.1,10.5,0.2,12.3
                    c-2.3-1.6-3.3-1.3-5-1.2c0-5-1.5-15.1,5.7-29c7.2-13.9,18.9-19,26.1-22.4c0,0-0.7-3.5-4.7-8c-4-4.5-7.9-6.1-7.1-9.3
                    c0.9-3.2,6-3.8,11.3,4.1c3.2,5,4.5,9.9,4.9,12.1c4.2-0.7,12.1-2.2,21.9-1.3c0.3-6.3,0-7.3-1.3-11.6c-1.3-4.3-4.3-9.1,0.4-11.1
                    c4.7-2,9.2,10.6,6.6,22.9c1.3,0.7,9.2,2.7,18.5,7.8c9.3,5,20.5,20.4,22.4,34.2C371.8,128.3,369.4,130.5,369.4,130.5z"></path></g><path class="st89" d="M308.3,72.1c0,0,2.6-19.2-0.2-25c-0.1,4.6-0.4,8.9-0.6,10c-3.3-1.5-7-2.4-11-9c-4.7-6.5-5.1-17.1,3.9-22.5
                  c0,0,8.3-5,18.1-0.5c9.7,4.4,13.7,8.1,16.8,10.9c3.2,2.8,11.4,11,14.2,14.6c1.1,1.3,1.9,2.1,0.4-0.3c-1.6-2.4-9.4-11.7-13.8-15.7
                  c-4.3-3.9-13.3-10.7-21.9-12.5c-9.5-2.6-18,3-20.5,7.3c-3,5.5-2.3,10.1-1.2,13.6c1,3.4,3.6,11.3,15.1,16.3
                  c0,3.5-0.8,10.5-1.6,13.3C306.9,72.8,307.3,73.3,308.3,72.1z"></path><path class="st89" d="M345,44.6c0,0,11-0.1,18.4,1.2c7.4,1.3,18.1,6.6,20.2,14.7c2,8.1-0.5,16.2-10.7,20
                  c-9.7,3.3-13.8,0.5-13.8,0.5l-3.5,5.3l-1.9-1.5c0,0,6.2-10,12.7-14.5c2.2-1.3,2.5-0.8,2-0.4c-0.4,0.5-5.2,4.8-8.4,9.7
                  c3,2.6,21.2,0.1,22.1-12.6c1.6-13-12.4-17.8-17.8-19c0,0-11.8-2-18-2.1C345.7,45.7,345.7,45.4,345,44.6z"></path><g><path class="st90" d="M324.7,135.6c0,0-1.5-6.8-0.3-14.4c5.7,1.7,6.1,1.9,6.1,1.9l-3.4-6.2c0,0,3-4.1,8.1-2.9
                    c5.1,1.2,6.9,6.4,7.1,7.9c0.2,2.7,0.6,8.6-0.8,12.4L324.7,135.6z"></path><path d="M324.3,135.2l1.1-0.1c-2.6-7.1-0.7-13.5-0.7-13.5l6.6,2.2l-3.5-6.5c0.5-0.8,3.6-4.2,9-2.3c4.8,2.8,5.5,8.3,4.9,13.8
                    c-0.6,5.3-1.5,5.5-1.5,5.5l1.7-0.1c0,0,1.2-4,1.2-8.3c-0.5-14.1-9.3-13-12.1-12.2c-2.8,0.7-4.5,3-4.5,3l3.2,5.3
                    c0,0-2.7-0.7-5.4-1.6C321.5,126.8,324.3,135.2,324.3,135.2z"></path></g><path class="st91" d="M317.5,138.5c0,0,6.8-2.5,14.3-3.2c7.5-0.7,11.3-0.5,11.3-0.5s1.3,0.1,1.5-0.1c0.3-0.2-0.8-0.5-2.1-0.7
                  c2-7.7,2.5-15.3,1.1-20.8c-3.4-11.4-12-12.7-16.9-11.2c-6.6,1.9-10.2,8.2-11.4,16c-1.2,7.6,2.3,19.7,2.3,20
                  C317.7,138.2,317.5,138.5,317.5,138.5z M316.8,118.4c0.9-9.3,6.2-13.8,10.1-15.1c6.2-1.6,13.1,2,15.6,10.8
                  c2.1,7.3-1.4,19.7-1.4,19.7s-3.7-0.4-9.5,0.1c-5.7,0.5-13.1,2.3-13.1,2.3S315.9,127.7,316.8,118.4z"></path><path class="st90" d="M282.7,130.9c0,0-0.9-3.4,0.3-11.1c5.7,1.7,5.9,2.3,5.9,2.3l-4.1-7.1c0,0,2.9-3.6,8-2.4
                  c5.1,1.2,6.5,7.2,6.7,8.8c0.2,2.7-1,10.6-2.4,14.4L282.7,130.9z"></path><path d="M282.6,119.1l5,1.8l-3.4-5.9c0.2-0.3,3.2-4.2,8-3.3c6.2,1.3,7.9,6.8,7.8,12.6c-0.2,5.8-3.4,11.1-3.4,11.1
                  s-0.2-0.1-0.6-0.2c0-0.1,0-0.2,0-0.2c0,0,0-0.1,0-0.1c0.1-0.4,2.9-7.5,2.8-11.8c-0.1-4.4-1.5-9.3-6.8-10.2
                  c-4.7-0.9-6.4,2.4-6.4,2.4l3.9,7.3l-6-2c0,0-1.1,6.3-0.6,9.6c-0.2,0.1-0.6-0.1-0.9-0.2C281,125.8,282.6,119.1,282.6,119.1z"></path><path class="st91" d="M272.4,129c0.1,0,0.9,0.1,0.9,0.1c9.3,0.8,24.7,7.9,24.7,7.9s-0.1-0.2-0.2-0.4c-0.1-0.2,6.6-16,3-26.1
                  c-3.6-10.1-10.8-11.3-14.3-10.4c-3.5,0.9-7.7,3.9-10.3,9.8c-2.6,5.9-1.8,17.8-1.5,18.8c-0.8,0-1.9,0-2.2,0.1
                  C272.2,128.8,272.4,129,272.4,129z M276.3,129c-0.8-6.4-1.9-17.8,5.1-24.3c1.3-1.2,2.7-2.4,4.6-3c1.8-0.5,3.1-0.6,5.7,0.2
                  c3,1,6.9,5.2,8.1,9.8c1.2,4.6,1.4,14.2-3.1,23.4C296.7,135.1,282.9,129,276.3,129z"></path><path class="st92" d="M272,143.1c0.3,0.4,1.2,1,3.4,1.7c3.7,3.9,8.4,8.7,12,13.5c3.7,4.8,4.3,5.6,6,7.7c1.7,2.1,5.3,6.2,10.5,5.8
                  c5.2-0.4,9.3-2.8,12.1-5.3c2.8-2.6,7.6-6.5,10.1-7.9c2.5-1.4,6.9-4.9,10.5-6c3.6,0.5,6.4-0.2,6.3-0.9c-0.1-0.5-0.5-0.2-0.7-0.1
                  c-0.2,0.1-2.4,0.2-4-0.3c-1.7-0.5-2.6-0.6-3.9-1.6c-1.3-1-2-1.7-2.2-1.6c-0.2,0.1-0.3,1.8,2.3,3.4c-4.5,2.6-6.3,3.8-14.1,5.4
                  c-7.8,1.6-14.9,2.3-23.6,0.5c-10.1-2-17.6-11.3-18.5-12.9c0,0,2.9-1.3,3.2-1.9c0,0,0.2-0.2,0.1-0.4c-0.1-0.2-0.2-0.3-0.5-0.1
                  c0,0-2.1,0.8-4.3,1.2c-2.8,0.5-4.2-0.9-4.6-0.9c-0.1,0-0.2,0.1-0.2,0.2C271.8,142.7,271.9,143,272,143.1z M286.9,155.2
                  c7.1,3.7,12.5,4.7,18,4.9c5.1,0.2,10.4,0.1,20.8-3c-3.7,2.1-13,10-13,10c-8.5,4.7-13.6,3.3-17.3-1.1
                  C291.4,161.5,286.9,155.2,286.9,155.2z"></path><linearGradient id="SVGID_9_" gradientUnits="userSpaceOnUse" x1="1193.1194" y1="-662.8636" x2="1209.6658" y2="-662.8636" gradientTransform="matrix(0.7512 0.5433 -0.7092 0.77 -1046.7526 -80.0231)"><stop offset="0" style="stop-color:#ec1c25"></stop><stop offset="8.528769e-02" style="stop-color:#f9b5b8"></stop><stop offset="0.1288" style="stop-color:#fff"></stop><stop offset="0.523" style="stop-color:#f69296"></stop><stop offset="0.8515" style="stop-color:#ef3d45"></stop><stop offset="1" style="stop-color:#ec1c25"></stop></linearGradient><path class="st93" d="M323.8,54.6c-0.7-1.5,1.1-2.5,2.1-0.9c0.9,1.6,2,6,2.3,10.3c0.3,4.4,0,3.9-0.5,7.6c0,0-0.8,1.2-0.9-0.3
                  c-0.1-1.3,1-6.9-0.7-11.8C324.9,56.3,324.2,55.5,323.8,54.6z"></path><linearGradient id="SVGID_10_" gradientUnits="userSpaceOnUse" x1="1737.9385" y1="10.626" x2="1754.6317" y2="10.626" gradientTransform="matrix(0.9053 0.2003 -0.3451 0.9884 -1282.5424 -294.125)"><stop offset="0" style="stop-color:#ec1c25"></stop><stop offset="8.528769e-02" style="stop-color:#f9b5b8"></stop><stop offset="0.1288" style="stop-color:#fff"></stop><stop offset="0.523" style="stop-color:#f69296"></stop><stop offset="0.8515" style="stop-color:#ef3d45"></stop><stop offset="1" style="stop-color:#ec1c25"></stop></linearGradient><path class="st94" d="M289.7,59.9c-1.2-1.1-0.1-2.6,1.5-1.7c1.7,0.9,4.5,4,6.2,7.9c1.8,4,1.6,4,2.7,7.6c0,0-0.4,1.5-1.1,0.2
                  c-0.7-1.2-1.8-6.7-5.4-10.6C291.5,61,290.5,60.6,289.7,59.9z"></path><g><linearGradient id="SVGID_11_" gradientUnits="userSpaceOnUse" x1="-467.3271" y1="701.2946" x2="-457.2123" y2="701.2946" gradientTransform="matrix(-0.7569 0.6535 0.6535 0.7569 -471.3318 -146.9433)"><stop offset="0" style="stop-color:#fff"></stop><stop offset="0.3535" style="stop-color:#fffdfd"></stop><stop offset="0.4929" style="stop-color:#fef6f6"></stop><stop offset="0.5946" style="stop-color:#fdeaeb"></stop><stop offset="0.678" style="stop-color:#fcd9da"></stop><stop offset="0.7501" style="stop-color:#fac2c4"></stop><stop offset="0.8145" style="stop-color:#f8a6aa"></stop><stop offset="0.873" style="stop-color:#f5858a"></stop><stop offset="0.9272" style="stop-color:#f25e65"></stop><stop offset="0.9756" style="stop-color:#ee343c"></stop><stop offset="1" style="stop-color:#ec1c25"></stop></linearGradient><path class="st95" d="M345,84.2c-2.6-1.8-8.1-5.7-17.5-7.9l-0.5,1.7c9.2,2,15.4,6.1,17.6,7.2C348,87,348.5,86.7,345,84.2z"></path><linearGradient id="SVGID_12_" gradientUnits="userSpaceOnUse" x1="-633.7226" y1="123.7817" x2="-602.3729" y2="123.7817" gradientTransform="matrix(-0.9941 0.1088 0.1088 0.9941 -302.4149 19.443)"><stop offset="0" style="stop-color:#ec1c25"></stop><stop offset="1.803200e-03" style="stop-color:#ec2029"></stop><stop offset="2.739296e-02" style="stop-color:#f1545a"></stop><stop offset="5.408738e-02" style="stop-color:#f48287"></stop><stop offset="8.139212e-02" style="stop-color:#f8a8ac"></stop><stop offset="0.1095" style="stop-color:#fac8ca"></stop><stop offset="0.1386" style="stop-color:#fce0e1"></stop><stop offset="0.1691" style="stop-color:#fef1f2"></stop><stop offset="0.202" style="stop-color:#fffcfc"></stop><stop offset="0.2416" style="stop-color:#fff"></stop></linearGradient><path class="st96" d="M311.3,75.6c1.8-0.4,6-0.6,11.4,0.3c-0.1,0.4-0.2,0.7-0.3,1.1c-5.2-1-8.6-1-10.2-0.8
                    C309.3,76.4,309,76.1,311.3,75.6z"></path></g><path class="st97" d="M370.3,131.2c0,0,3.1-12.4-0.7-23.6c-3.8-11.3-8.7-17.2-15.7-23.5c-7-6.3-17.3-10-23.7-11.8
                  c0.6-4.2,1.3-10.9-0.5-16.4c-1.8-5.6-4.5-8.5-7.9-7c-3.4,1.5-2.4,5.1-1.6,7.8c0.8,2.7,3.6,10.5,2.6,14.8
                  c-2.3-0.1-11.3-0.7-20.7,1.5c0,0-3.6-16.8-12.9-18.5c-1.9-0.4-3.1,0-3.9,0.5c-1.1,0.7-1.4,1.8-1,4c0.6,2.7,4.1,5,5.5,6.4
                  c0.8,0.8,2.9,3,3.8,4.1c0.9,1.1,2.3,3.1,3,5.1c-1.2,0.3-7.8,2.2-14.6,7.9c-6.8,5.7-11.4,11.7-14.9,20.3
                  c-2.8,8.2-2.9,18.5-2.6,22.4l1.8,0.4c0,0-0.4-8.5,0.9-14.4c1.3-6.1,5.3-22.2,23.1-31.8c3.6-2,6.5-3.2,7.2-3.2
                  c1.1,3.4,1.3,4.7,1.6,4.6c0.4-0.1,0.7-0.7-0.7-5.3c-1.4-4.7-2.4-5.8-6.7-9.9c-1.5-1.5-6.4-5.7-5.7-8.1c0.1-0.3,1.4-2.6,6.2,0.5
                  c0,0,1.1,0.7,2.6,2.6c1.5,1.8,3.4,4.5,5.1,9.8c0.7,2.1,1.2,4.2,1.5,5.2c0.3,1,0.7,3.9,0.8,4.1c0.1,0.2,1,0.4,0.9-0.6
                  c-0.1-1-0.9-4.3-0.9-4.3s11.4-2.8,20.3-1.3c-0.3,2-0.5,4.4-1.2,5.5c-0.7,1.1,0.4,1.2,0.9,0.2c0.5-0.9,2.7-3.5,2.2-12.7
                  c0-4.3-3.1-10.1-3.2-12.4c-0.1-2.2,1.1-3,2.4-3.2c1.3-0.2,3.4,1.1,4.5,6.9c1.1,5.8,1.3,10.1,0.7,13.3c-0.7,3.2-2.6,8.1-2.9,8.8
                  c-0.3,0.6-0.1,1.7,1,0.3c1.1-1.4,2.4-5.9,2.6-5.9c0.2,0.1,12.9,2.3,24.5,12.1c11.7,9.8,15.3,27.4,15.7,30.1
                  c0.3,2.7-0.3,14.2-2.2,14.6C367.4,130.9,369.2,131.5,370.3,131.2z"></path><path class="st98" d="M263.1,167.5c0,0,3.8,4.8,10.8,10.1c4.5,3.4,9.4,6.5,14.4,9.5c0,0,0,0,0,0c0.1,0.1,0.1,0.1,0.3,0.2
                  c0.2,0.1,0.2,0.1,0.3,0.2c0,0,0.1,0,0.1,0c0.2,0.1,0.4,0.2,0.6,0.4c0.1,0.1,1.7,0.9,2.8,1.5c0.6,0.3,1,0.5,1.1,0.6
                  c0.2-0.3-0.7-2.2-0.6-2.5c-0.2-0.2-0.5-0.3-0.6-0.3c0,0,0,0,0,0c0,0,0,0,0,0c-0.4-0.1-0.8-0.3-1-0.4c-0.7-0.3-1.8-0.9-2.3-1.2
                  c-0.6-0.4-1-0.5-1.5-0.8c-0.5-0.3-1-0.6-1.4-0.9c0,0,0,0,0,0c-0.2-0.1-0.3-0.2-0.5-0.3c-2.9-1.8-5.8-3.7-8.4-5.6
                  c-0.5-0.4-1.1-0.9-1.6-1.3c-6-4.8-12.1-10.2-15.9-16.8c-4.4-7.6-6.6-18.4-2.9-26.7c2.6-5.8,9.1-9.5,14.5-4.3c-1.5-4-5.8-4.8-9-3.4
                  c-4.7,1.9-7.7,6.5-8.8,11.3C251.2,147,255.9,159.8,263.1,167.5z"></path><path class="st98" d="M296.1,191.7l0.4,0.2l0,0C296.4,191.8,296.3,191.7,296.1,191.7z"></path><path class="st92" d="M349,134.2c0,0,8.3-4,16.3-2.9c7.4,1,20.9,18.3,2.5,33.8c-19.3,16.2-30.8,19-38.6,21.3
                  c-2.3,1.8-3.2,2.6-3.2,2.6s23-4,43.7-23.4c19-17.9,4.2-36.6-5.6-36.8C353.9,128.7,349,134.2,349,134.2z"></path><path class="st92" d="M292.3,189.3c1,1.1,2.8,2.5,5.9,4.2c7.5,4.1,16.2,2,22.3-0.8c6.2-2.8,10.3-7.3,9.8-8c-0.5-0.7-2,0.8-2,0.8
                  c-3.2,3.7-13.4,8.8-21.2,8.4c-7-0.4-12-4.8-13.9-6.2c-0.1-0.1-0.2-0.2-0.3-0.2c-0.2-0.2-0.5-0.3-0.6-0.3c0,0,0,0,0,0c0,0,0,0,0,0
                  c-1.2-0.4-1.3,0.1-1.3,0.1S291,187.9,292.3,189.3z"></path></g></g></g><g><path class="st99" d="M324.4,261.2c0,0-21.1,12-31.6,17.5c2.4-6,5.3-16.9,5.3-17.4C298.1,260.8,324.6,259.2,324.4,261.2z"></path><path class="st100" d="M352.5,259.4l-37.9,0.9c-10.2-1.5-13.4-8.7-2-12l37.8-0.9c3.4,0.2,6.5,0.8,7,2.1
                    C358.5,252.1,360.8,257.7,352.5,259.4z"></path><path class="st18" d="M344,255.5c0,0-2.7,3.2-10,3.3c-7.3,0.2-22.6,0.5-22.6,0.5l-7.6,4.2c0,0,30.4-0.7,32.3-0.7
                    C338.1,262.7,343,260.8,344,255.5z"></path><path class="st100" d="M222.1,264.1l-21.7,0.3c-5.9-0.3-3.3-12.4-1.3-11.8l21.1-0.5c2.9,0.2,5.6,0.8,6.1,2.1
                    C227.3,256.8,229.3,262.4,222.1,264.1z"></path><path class="st101" d="M255.2,295.3c8.2-1,15.9,1.3,23.5,3.6c7.5,2.3,11.4,7.9,13.5,14.7c1.7,5.4,2.5,11,2.3,16.7
                    c-0.2,6-1.1,11.9-2,17.8c-1.2,8.3-2.5,16.5-3.9,24.8c-1,6.2-1.2,12.4-1.2,18.6c0,6,2,11.5,4.7,16.9c5.5,11,10.6,22.1,15.8,33.2
                    c1,2.2,1.9,4.5,2.6,7c-1.5-1.4-3.1-2.8-4.5-4.3c-2.8-3.2-6.2-6-9.2-9.1c-4.5-4.5-8.4-9.4-12.8-13.9c-4.7-4.8-9.2-9.7-13.8-14.6
                    c-3-3.3-6.5-6.2-10.1-8.9c-0.3-0.3-0.6-0.6-1.1-0.6c-0.9-0.1-1.2-0.8-1.6-1.4c-4.1-7.2-11.1-10.1-19.4-11
                    c-1.6-0.2-3.2-0.3-4.8-0.3c-0.7,0-1.4,0.1-1.9-0.5c0.1-0.5,0.5-0.7,1-0.7c1.6-0.1,1.9-1,2-2.3c0.3-9.6,2-19,4.8-28.3
                    c2.5-8.3,6-16.3,8.7-24.6c0.5-1.4,1.3-2.2,2.9-2.1c0.5,0,1,0,1.5-0.2c1.4-0.3,2.9-0.5,4.3-1c1.4-0.5,2.5-1.4,2.5-2.9
                    c0-1.4-1.2-2-2.4-2.5c-1.1-0.5-2.3-0.8-3.5-0.7c-2.1-0.4-4.3,0-6.4-0.3c-1.8-0.5-2.4-2-3.3-3.3c-2.7-3.7-4-7.9-4.2-12.3
                    c-0.1-1.4,0.3-2.7,1.5-3.7c1.9-1,4-1.5,5.4-3.2c0.3-0.7,1-0.8,1.7-0.7C250.2,295.1,252.7,295.8,255.2,295.3z"></path><path class="st9" d="M267.6,412.5c4.8,7.6,8.3,15.6,11.6,23.8c3.9,9.5,9.2,18.4,15.4,26.8c4.1,5.5,7.6,11.3,11.4,16.9
                    c0.7,1,0.4,1.5-0.7,1.8c-1.3,0.4-2.7,0.4-4-0.1c-2.9-1.3-5.7-2.7-8-5c-3-3.1-5.5-6.6-8.3-9.8c-4.7-5.5-11-7.3-18.3-6.4
                    c-1.4,0.2-2.8,0.3-4.2,0.3c-0.9,0-1.2,0.2-1,1.2c1,5.5,1.4,11.1,1.3,16.7c0,2.3-0.3,4.6-0.5,6.9c-1.2,10.2-3.8,20-9.7,28.9
                    c-3.2,4.7-7.1,8.8-12.5,11.3c-2.3,1-4.7,1.6-7.2,1.8c-5.3,0.5-10.6,0.4-15.9,0.6c-10,0.4-17.9-3.3-23.8-10.7c-1.5-1.9-3-3.8-4-6
                    c0.7-0.5,1.5-0.2,2.2,0c9,1.8,18,1.7,27,0.2c1.8-0.3,1.8-0.4,0.7-1.7c-8.6-10.1-12.3-21.7-12.7-34.4c-0.2-6.5-0.5-13.1,0.7-19.6
                    c0.4-2.2,0.9-4.4,1.5-6.6c0.5-2,0.4-2.2-1.9-2.5c-5.2-0.7-10.4-0.5-15.6,0c-1.3,0.1-2.7,0.3-4,0.5c-0.8,0.1-1.5,0.2-2.2-0.4
                    c1.5-4.6,4-8.7,6.8-12.6c0.4-0.7,1.2-0.8,2-0.9c6.8-1.3,13.6-1.5,20.5-1c4.9,0.4,9.9,0.6,14.8,0.6c7,0,13.8,0.9,20.6,2
                    c1.3,0.2,2.4,0.8,3.3,1.7c4,3.6,8.2,7,12.8,10c0.7,0.4,1.5,0.9,1.2,1.8c-0.3,0.9-1.2,1.1-2.2,1.2c-1,0.1-2.1,0-3.1-0.1
                    c-0.9-0.1-1.8,0-1.9,1c-0.1,1,0.9,1,1.7,1c2.1,0,4.2-0.1,6.4-0.1c1.1,0,1.9-0.4,1.9-1.6c0.8-10.6,2.1-21.2-1.5-31.7
                    c-0.6-1.6-1.4-3.2-1.4-5C267,412.7,267.1,412.4,267.6,412.5z"></path><path class="st102" d="M240.6,299.1c-2.3,4.1-0.4,8,0.9,11.8c1,2.7,2.6,5.1,5,7.1c0.1,0.6-0.5,0.7-0.9,0.9c-1.5,0.6-2.4,1.6-2.9,3
                    c-0.2,1.5,0.7,2.4,2,3c1.5,0.7,3.2,0.7,4.8,0.7c1,0,2-0.3,2.9,0.4c-0.2,0.1-0.3,0.3-0.5,0.3c-3-0.5-3.5,1.3-4.2,3.4
                    c-2.1,6-4.5,12-6.6,18c-2.3,6.7-4.2,13.5-5.2,20.5c-0.6,4.5-1.3,9-1.2,13.6c0,1.1-0.4,1.8-1.8,1.8c-0.6,0-1.2-0.1-1.6,0.4
                    c-0.3,0.4-0.7,0.6-1.3,0.5c5,0.7,10,1.7,14.8,3.3c1.4,0.5,2.8,0.7,4.2,1.4c0.8,0.4,1.6,0.7,2,1.6c-0.1,0.7-0.6,0.8-1.2,0.8
                    c-0.4,0-0.8,0-1.1-0.1c-4.2-1.3-7.9-0.4-11.7,1.7c-4.4,2.5-8.2,5.5-11.2,9.4c-2.6,3.4-5.5,6.6-7.4,10.4c-2.3,4.5-4.6,9-6.3,13.8
                    c-0.6,1.7-1.5,2.3-3.3,2.3c-4,0-8,0.2-11.9,0.3c-6.2,0.1-12.3,0.6-18.3,1.8c-0.3,0.1-0.5,0-0.7-0.1c1.6-6.8,3.7-13.5,7.5-19.5
                    c3.7-5.8,8-11.1,12.7-16.2c0.8-0.9,1-1.6,0.7-2.7c-0.9-3.6-1-7.3-0.8-11c1-0.2,1.7,0.5,2.4,1c1.8,1.3,3.8,2.4,5.9,3.4
                    c1.2,0.6,2.3,0.6,3.5,0c1.6-0.8,3.2-1.8,4.7-2.8c0.9-0.6,1.6-1.5,1.5-2.6c-0.3-5.7,0.8-11.4-0.3-17.1c-0.3-1.7-1.1-2.6-2.9-2.8
                    c-1.9-0.3-3.8-0.6-5.7-0.6c-1.4,0-2.9,0-3.9-1.1c1.5-4.7,3.2-9.4,4.5-14.2c2.2-7.9,6.1-15.3,9.4-22.8
                    c4.4-10.1,12.2-17.2,22.3-22.3C239.6,299.3,240.1,299.2,240.6,299.1z"></path><path class="st12" d="M177.6,431c2.6-1.3,5.6-1.3,8.4-1.6c7.1-0.8,14.3-0.7,21.5-0.9c3.1-0.1,3-0.1,4.2-2.7
                    c3.6-8.4,7.6-16.5,13.7-23.8c4.4-5.2,9.8-8.8,16.1-11.5c1.9-0.8,3.9,0.1,5.8,0.2c1.2,0.1,2.3,1.2,3.5,0c0.7-0.2,1.1,0.2,1.5,0.6
                    c3.2,2.6,6.1,5.4,7.9,9c0.7,1.4,1.5,2.7,2.3,4.1c1.5,2.9,3.3,5.6,4.5,8.6c1.4,4.3,2.9,8.6,3.6,13.1c0.6,4.1,0.5,8.2,0.4,12.3
                    c-0.1,3.7-0.5,7.5-0.7,11.2c-0.1,1.6-0.6,2.3-2.4,2.3c-2.4,0-4.8,0.1-7.1,0.1c-1.2,0-2.2-0.2-2-1.5c0.1-1.1,1.1-1.8,2.3-1.6
                    c1.2,0.2,2.4,0.3,3.6,0.2c0.7,0,1.5-0.1,1.8-0.8c0.3-0.8-0.7-0.9-1.1-1.2c-4.2-2.7-8.3-5.6-11.8-9.1c-2.1-2.1-4.7-2.6-7.5-3
                    c-8.4-1.4-17-1.3-25.5-1.6c-5.3-0.2-10.6-0.7-15.9-0.6c-4.4,0.1-8.8,0.7-13.1,1.7c-4,0.7-8-0.1-12-0.4
                    C177.9,433.6,177.4,432.8,177.6,431z"></path><path class="st99" d="M184.9,446.8c5.3-0.5,10.6-1.2,15.9-1.1c2.5,0,5,0.3,7.4,0.6c1.1,0.1,1.6,0.5,1.2,1.8
                    c-2,6.6-2.8,13.3-2.7,20.2c0.1,7.8,0.4,15.5,2.8,23c2.3,7,5.6,13.5,10.8,19c0.8,0.9,0.8,1.2-0.6,1.5c-10.3,1.9-20.5,2-30.6-0.4
                    c-3.6-5.7-5.7-11.9-7.1-18.3c-3.4-15.4-2.9-30.7,2.6-45.7C184.6,447.2,184.8,447,184.9,446.8z"></path><path class="st102" d="M313.1,257.7c0,1.4,1.2,0,1.6,1.3c0.1,0.2-1.4,0.3-1.3,0.5c-3.5,1.9-6.6,4.9-10,8.4c-1.7,1.8-2.9,2.8-2.9,5
                    c-0.1,4-0.9,7.9-2.2,11.7c-0.7,2.1-1.8,3.9-3.6,5.2c-0.3,0-0.5-0.1-0.6-0.2c-0.7-0.4-0.7-1.2-0.9-1.8c-2.7-7.4-7.1-13.7-13.1-19
                    c-0.5-0.5-4.3-1-5.2-0.9c-1.1-2-2-4-3.3-5.9c-2.7-4.1-3.6-6.5-7.8-8.8c-4.6-2.5-10.7-2.9-16-3.4c-0.9-0.1-0.8-1.3-1.7-1.8
                    c-0.2-0.2-0.2-0.4-0.1-0.6c5.6-0.4,11.2-0.4,16.8-0.7c12-0.6,23.9-1.3,35.9-1.4c0.9,0,4-0.1,4.7-0.1c5.6-0.1,11.2-0.2,16.9-0.4
                    c0,0,0,0.1,0,0.1C316,247.5,313,252.3,313.1,257.7z"></path><path class="st102" d="M249.7,249.9c-4.6,0-12.9,1-16.3,3.4c-3,2.1-5.1,5.1-7,8c-2,0.9-19.2,1.5-21.2,0.7
                    c-0.7-0.3-1.3-0.6-1.9-1.1c-0.5-0.5-0.7-1.1-0.8-1.7c-0.5-5.8,3.5-10.5,9.5-11.1c2.7-0.3,5.4-0.9,8.1-0.1c6.5-0.1,13-0.2,19.5-0.3
                    c0.1,0.1,9.7-0.4,9.7-0.3C249.1,247.4,249.7,249.9,249.7,249.9z"></path><path class="st18" d="M198,377.5c0.6,0.3,1.3,0.7,2.1,1.3c1.9,1.6,4.1,2.6,6.2,3.8c0.7,0.4,1.3,0.4,1.9,0c1.1-0.7,2.3-1.4,3.4-2.1
                    c0.7-0.4,0.8-1,0.8-1.7c0-4.2,0.1-8.4,0-12.6c0-2.5-0.2-2.7-2.8-3.1c-2.3-0.4-4.6-0.5-6.9-0.4c-0.3-0.2-0.7,0-0.9-0.3
                    c-0.3-0.1,0.3-3.6,1-3.6c3.5,0.2,6.6,0.4,9.8,1.2c2.4,0.6,2.7,1.1,3.2,3.3c1.1,5.7-0.1,11.5,0.3,17.2c0.1,1.2-0.7,2.1-1.7,2.9
                    c-0.2,0.2-0.6,0.3-0.8,0.4c-6.7,3.8-7.3,3.8-13.5-0.8c-0.8-0.6-1.6-1.1-2.5-1.7C197.2,380.6,197.7,378.5,198,377.5z"></path><path class="st101" d="M247.7,295.1c0.9-0.6,10-2.5,10.9-3.1c7.4-4.2,14.5-5.5,16.1-13.2c0.7-3.5-0.3-6.2-0.7-9.7
                    c0.1-1,5.1-1.1,5.5-0.8c3.9,3.4,8.2,5.5,11,9.8c2.2,3.4,2.4,8.2,4.2,11.7c-3.2,3.7-7.7,5.1-12.2,6.6
                    C276.5,298.5,254.1,295.2,247.7,295.1z"></path><path class="st103" d="M262.4,404.4c-0.8-1.3-1.7-2.6-2.5-4c-2.1-3.9-5.3-7-9-9.7c-3.1-2-6.8-2.7-10.3-3.6
                    c-3.8-1.1-7.7-1.8-12.2-2.4c1.4-0.3,2.2-0.5,3-0.7c4.9-0.2,9.7,0.3,14.4,1.8c4.7,1.5,8.3,4.1,10.9,8c0.7,1.1,1.5,2.2,2.3,3.3
                    c1.2,2.3,2.5,4.6,3.8,6.9C262.9,404.3,262.7,404.4,262.4,404.4z"></path><path class="st104" d="M262.4,404.4c0.1-0.1,0.3-0.3,0.4-0.4c1.9,2.7,3.1,5.7,4.8,8.5c-0.1,0.1-0.3,0.3-0.4,0.4
                    C265.4,410.1,263.8,407.3,262.4,404.4z"></path><path class="st18" d="M284.2,362.3c-0.1,2.9-1.4,6.4-1.9,10.1c-0.2,1.8-0.7,3.5-0.9,5.3c-0.1,1.6-1.5,2.5-2.8,3.2
                    c-4.8,2.6-10,4.4-15.1,6.2c-2.6,0.9-4.1,0.3-5.6-1.9c-1.1-1.5-2.6-2.6-3.1-4.4c-0.2-0.7-0.3-1.4,0-2.1c2.5-6,5.5-11.9,8.5-17.8
                    c0.5-0.9,1.2-1.6,2.2-1.9c5-1.5,10.1-2,15.3-1.4C283.8,358,284.1,358.5,284.2,362.3z"></path><path class="st105" d="M242.3,321.6c0.4-2.2,2.4-2.8,4.2-3.6c2.3-0.1,4.6-0.3,6.9,0.2c1.4,0.5,3.3,0.4,3.6,2.4
                    c0.2,1.4-1.3,3.6-3.1,4.1c-3.2,0.8-6.4,1-9.6-0.1C243,324,242.1,323.1,242.3,321.6z"></path><path class="st6" d="M242.3,321.6c0.9,2.2,2.2,3.1,5.2,3.1c1.4,0,2.8-0.1,4.2-0.1c2.4,0,3.8-1.4,4.7-3.1c0.5-0.9,0.1-1.9-0.9-2.4
                    c-0.7-0.3-1.4-0.6-2.1-0.9c1.8-0.1,3.4,0.6,4.8,1.5c2.1,1.3,1.6,4.1-1,5.3c-1.5,0.7-3.1,1.1-4.8,1.1c-2.3-0.1-4.6,0.3-6.8-0.2
                    C243.1,325.2,241.7,323.5,242.3,321.6z"></path><path class="st11" d="M247.8,456.5c3.2,7.3,4.2,14.9,3.8,22.6c-0.3,5.4-1.4,10.7-3.7,15.8c-1.6,3.6-3.7,6.8-6.7,9.5
                    c-5.3,4.6-12.2,4.8-17.7,0.4c-4.1-3.3-6.7-7.4-8.4-12.1c0-0.1,0-0.2,0.1-0.2c2.8-3.6,6.2-6.8,9.3-10.3c4.2-4.7,8.6-9.3,12.7-14.1
                    c0.7-0.8,1.5-1.5,2.2-2.3C242,462.6,245.1,459.7,247.8,456.5z"></path><path class="st11" d="M215,492.6c-2.9-6.9-3.8-14.1-3.4-21.5c0.3-5.5,1.4-10.8,3.7-15.9c1.6-3.5,3.6-6.7,6.6-9.3
                    c5.4-4.7,12.3-4.9,17.9-0.4c3.4,2.7,5.8,6.1,7.5,10c-1.7,3-4.1,5.5-6.3,8.2c-0.6,0.7-1.1,1.5-1.7,2.1C232,473.9,224.6,482,217,490
                    c-0.7,0.8-1.3,1.6-2,2.4C215.1,492.5,215,492.6,215,492.6z"></path><path class="st106" d="M239.1,465.6c2.7-3.4,5.1-7,8.2-10.2c0.2,0.3,0.3,0.7,0.5,1c0,0.5-0.1,1-0.6,1.5c-2.6,2.7-5.2,5.4-7.7,8
                    C239.1,466,239,465.9,239.1,465.6z"></path><path class="st107" d="M280.3,362.6c-0.5,2.5-1,5.3-1.5,8.1c-0.3,1.4-0.7,2.8-0.8,4.2c-0.1,1.9-1.2,2.9-2.8,3.7
                    c-3.7,1.8-7.6,3.1-11.5,4.6c-1.4,0.5-2.2,0.2-3.2-1c-1.9-2.2-1.9-4.2-0.5-6.7c2.1-3.7,3.8-7.5,5.7-11.3c0.7-1.5,1.8-2.2,3.6-2.6
                    c2.9-0.6,5.8-0.8,8.8-0.8C279.1,360.8,280.4,360.8,280.3,362.6z"></path><path class="st108" d="M239.1,465.6c0.1,0.1,0.3,0.2,0.4,0.4c-3.7,4.2-7.4,8.3-11.2,12.4c-4,4.4-7.9,8.7-11.9,13
                    c-0.4,0.4-0.8,0.7-1.3,1.1c0.5-2.1,2.4-3.3,3.8-4.8c4.6-5.2,9.4-10.2,14.1-15.2C235,470.2,237,467.9,239.1,465.6z"></path><path class="st107" d="M212.9,365.5c-0.2-1.5-1-2.5-2.7-2.7c-2.4-0.3-4.7-0.7-7.1-0.3c-0.3,0-1,0.1-1.2,0.1
                    c-0.5,1-3.3,11.2-3.5,13.6c-0.2,0.8-0.1,0.5-0.4,1.4c0.9,0.8,2.2,2,3.3,2.8c1.1,0.8,2.4,1.4,3.6,2.1c1.4,0.9,2.8,1.2,4.4,0.3
                    c1.7-0.9,2.1-0.8,2.8-2.1C215.1,375.4,213.1,366.6,212.9,365.5z"></path><path class="st99" d="M216.2,263.6c0,0,3.9,8.1,7.8,11.5c1.2-4.3,1.7-11.7,1.7-12.1C225.7,262.7,216.1,262.2,216.2,263.6z"></path><path class="st18" d="M202.4,259c0,0,1.7,3,6,2.9c4.3-0.1,17.9-0.4,17.9-0.4l-1.6,3.9c0,0-16.3,0.4-17.4,0.4
                    C206.1,265.8,203.2,264.1,202.4,259z"></path><path class="st107" d="M248,249c7.8,0.2,14.6,2.9,20.9,7.1c3.6,2.4,5.8,5.7,7.3,9.4c0.9,1.4,0.9,3,0.9,4.5
                    c0.1,6.4-2.2,12.1-6.8,17c-1.9,2.1-4.3,3.5-7.1,4.5c-8,3.5-18.2,4-18.7,4.1c-7.6,0.3-12.7-3.3-16.5-8.9c-2.1-3.1-3.5-6.4-3.9-10.1
                    c-0.1-0.7-0.4-1.4-0.7-2c-0.7-3.4-0.2-6.8,0.8-10.1c0.6-1.5,1-3,1.9-4.4c2-3.6,5-6.1,8.4-8.6C238.1,249.2,245.1,248.9,248,249z"></path><path class="st109" d="M258.5,270.3c-0.1,3.7-0.5,7.9-2.7,11.7c-3.5,6.1-9.7,8.5-15,8c-7.2-0.6-12.3-4.9-14.2-11.5
                    c-0.9-3-0.7-6-0.5-9c0.3-2.9,0.5-5.7,2.2-8.4c3-4.8,12.3-8.8,19-6.6C255.8,257.4,258.2,262.5,258.5,270.3z"></path><path class="st101" d="M272.5,279.1c-0.5,6.6-15.1,13.5-20.2,11.1c0-0.6,0.6-0.9,1-1.2c1.9-1.3,3.4-2.9,4.5-4.8
                    c0.5-0.9,1.2-1.1,2.2-1.1C264.5,283.1,268.8,282.2,272.5,279.1z"></path><path class="st102" d="M312.3,245l27.3-0.6c0,0,4.3-0.7,4.6,10.8c0,0,0.7,3.6-8.1,3.8c-8.7,0.2-25.1,0.6-25.1,0.6
                    S307,246,312.3,245z"></path></g></g><g id="Left_Hand"><g><path class="st35" d="M404.2,245.6c-2.2-6.3-12.1-14.6-22.2-11c-4.5,1.6-6,2.8-6,2.8s-5.3,0-10.8,2c-5.3,1.9-11.4,4.9-16.4,14.3
              c-0.1,0.8-0.4,1.5-1.2,2.2c0.3-0.2,0.5-0.4,0.6-0.6c0.2-0.4,0.3-0.3,0,0c-0.1,0.2-0.2,0.4-0.3,0.8c-0.2,0.6-0.3,1.1-0.5,1.7
              c-0.3,1-0.6,2-0.8,3.1c-0.8,4.1-0.1,8.6,0.2,12.8c0.5,2,2,5.4,6.3,5.3c4.3-0.1,6.2-2.4,6.2-2.4s1,3.3,1.7,4.7c0.7,1.4,2.5,3.3,7,3
              c4.5-0.4,6.5-3.8,6.5-3.8s2.5,3.9,8.6,2.3c6.1-1.6,9.6-5.9,9-13.2c0.9-0.7,1.8-1.3,1.8-1.3s1.2,0.2,3-0.4
              C398.9,267.2,409.8,261.3,404.2,245.6z"></path><path class="st79" d="M398.9,252.7c-1.5-5.6-7.4-1.3-11.8,3c-4.4,4.3-6.5,11.1-6.1,16.9c0.4,5.8,4.9,5.7,5.8,2
              c0.9-3.7,0.7-2.6,0.7-2.6s2,0.1,6.6-3.7C398.8,264.6,400.3,257.8,398.9,252.7z"></path><path class="st79" d="M390.1,271.2c-0.7,3.1-2.6,11-9.3,11.7c6.1,0.3,11.2-2.5,11.6-13.1C390.9,270.6,390.1,271.2,390.1,271.2z"></path><path class="st79" d="M399.1,252c-1.2-4.4-1.5-16.1,3.6-9.7c5.1,6.4,4.5,25.6-8.3,25.8C397.4,264.6,401.3,260.4,399.1,252z"></path><path class="st79" d="M374.4,259.5c1.1-3.1-0.4-4.1-2.9,1.4c-2.4,5.5-4.5,15-2.9,19.3c1.6,4.4,4.3,3,6.2,0.5
              c-1.3-1.6-1.7-2.4-2.3-4.2C371.8,274.7,371.3,268.3,374.4,259.5z"></path><path class="st79" d="M360.6,257.5c2.5-5.4-0.4-2.6-2.5,0.7c-3,4.6-8.2,26.1,1.3,18.6C357.5,267.5,358.9,261.2,360.6,257.5z"></path><path class="st44" d="M375.7,237.5c0,0,1.7-1.6,6.4-3.2c5.4-1.9,18.3-1,22.7,11.6c4.5,12.6-2.3,20.4-7,22.1
              c-2.3,0.8-3.7,0.8-3.7,0.8l0.3-0.5c0,0,1.5-0.3,3.1-0.8c5.6-2,9.8-10.9,6.2-21.1c-3.8-10.6-15.1-13.7-21.5-11.4
              c-4.4,1.6-6,2.7-6,2.7L375.7,237.5z"></path><path class="st44" d="M387.5,271.8c0,0,16.4-4.9,9.9-23.1c-2.6-7.3-16.3-14.3-31.9-8.8c-13.9,4.9-19,16.4-19.1,25.5
              c-0.1,7.6,1.7,12.3,5.9,13.1c4.2,0.8,7-1.9,7-1.9l0.2,0.6c0,0-3.1,2.9-7.3,2.2c-5.3-0.9-6.6-7.1-6.5-14.2
              c0.1-7.1,3.7-20.4,19.6-26c13.9-4.9,29.9-0.9,33.4,9.2c6.6,18.7-11.2,24.2-11.2,24.2L387.5,271.8z"></path><path class="st44" d="M387.3,269c0.8,2.7,0.5,4.8-0.3,6.2c-0.8,1.4-1,0.8-0.6-0.1c0.3-0.9,1.3-2.9,0.3-5.8
              C386.1,267.1,387.1,268,387.3,269z"></path><path class="st44" d="M392.6,269.7c0,0,0,2.6-0.3,4.5c-0.6,3.4-2.2,7.2-6.3,8.7c-6.5,2.3-11.6,0.2-13.7-5.7
              c-2.6-7.4,1.3-16.2,1.8-17.6c0.5-1.4,1.1-1,0.6,0.2c-0.5,1.2-3.8,10.9-1.6,17c1.8,5.2,6.4,7,12.5,4.9c4.5-1.6,6.1-6.9,6.3-8.5
              c0.2-1.6,0.3-3.3,0.3-3.3L392.6,269.7z"></path><path class="st44" d="M360.4,257.2c-1.7,3.5-4.2,12.2-0.5,22.6c2.1,5.9,5.9,6.1,8.8,5.5c4.9-0.9,6.1-4.4,6.1-4.4l-0.5-0.3
              c0,0-1.5,2.5-5.9,3.2c-3.8,0.6-6.3-0.7-7.6-4.4c-2.3-6.5-3.1-12.6,0.2-21.8C361.5,255.9,361,256.1,360.4,257.2z"></path></g></g><g id="Mid_Bike"><path class="st18" d="M479.5,450.6c-0.4-3.3-1.5-6.4-2.6-9.5c-0.2-0.2-0.4-0.3-0.6-0.4c-0.5-0.1-1-0.1-1.5-0.1
                c-4.6-0.1-9,1-13.6,1.2c-10.3,0.6-20.7,0.2-31,1.6c-5.2,0.1-10.4,0.3-15.6,0.4c-6.9,0.1-12-2.5-15.3-8.3c-2.7-4.7-4.4-9.6-5.3-14.8
                c-0.1-0.9-2.3,0.4-3.1-0.3c-1,0.3-1.4-0.8-1.4-0.1c0,1.9,0,4.2-0.1,6.1c-0.1,3.2-0.3,6.8,1,9.7c1.6,3.6,2.7,6.9,4.6,10.4
                c1,1.4,0.4,2-0.7,3.2c-2.2,2.4-1.7,2.8-4.1,5.2c-2.6,2.6-5.2,4.1-7.6,7c-0.6,0.7-3.4,5.4-2.9,6.2c0.5,0.8,5.6,0.8,6.5,0.8
                c4.9,0,9.5-0.5,14.4-0.4c2.9,0,5.3-0.5,8.3-1c1.6-0.2,2.1-0.2,3.7-0.2c1.2,0,0.6,0.1,0.1,1c-0.8,1.4,0.8,1.4-0.9,1.5
                c-5.1,0.3-10.1,1.1-15.2,1.2c-3.7,0-7.3-0.2-11-0.1c-11.1,0.3-22.2-0.2-33.3,0.3c-0.1,0-0.3,0-0.4,0c-5.2-0.5-10.5-0.8-14.1-5
                c-0.4-0.3-1.1-0.3-1.3-0.9c-0.2-0.4,0.2-0.6,0.2-1c-0.6-0.6-1.5-0.8-1.8-1.7c-0.3-0.6-0.7-1.3-1-1.9c-2.7-4.6-5.6-9.1-8.1-13.7
                c-1.9-3.5-4.2-6.9-6.3-10.4c-3.1-5.3-6.4-10.6-8.4-16.4c-2-5.8-4.3-11.6-7-17.2c-2.5-5.2-3.3-10.6-2.1-16.2
                c1.4-6.8,1.6-13.7,2.7-20.5c-0.1-0.6,0.2-1.1,0.5-1.5c0.1-0.4,0.2-0.8,0.2-1.1c0-1,0.1-2,0.2-3c0.5-4.3,1.1-8.6,1.8-12.9
                c0.7-6,2.2-12,1.6-18.1c-0.5-5.1-1-10.3-2.9-15.2c-2-4.6-5.5-8.2-8.8-12c-1.1-0.8-2.2-1.6-3.4-2.3c-2.5-1.4-2.5-1.5-0.3-3.1
                c5-3.8,8.4-8.6,9.8-14.5c0.7-3.5,0.9-7.1,1.9-10.6c0.4-1.3,0.9-2.5,1.3-3.2c1.1-1.3,2.6-2.7,3.5-3.7c0.7-0.4,3.2-1.7,3.8-1.7
                c-0.3-0.5-6.9-1.9-7.1-2.5c-0.1-0.1-0.4-2.2-0.5-2.4c-2.8,0.1-5.8,5-8.9,6.6c-2,1-2.7,2.5-2.8,4.5c-0.1,1.9-0.2,3.8-0.7,5.6
                c-0.8,3-1.4,6.2-4.3,8.3c0,0-0.1,0.1-0.1,0.1c-2.9,2.7-6.6,4-10.4,5.2c-5.2,1.6-10.5,2-15.9,2.2c-3.5,1.2-6.9,2.6-10.6,3.3
                c-0.4,0.1-5.7,0.3-5.7,0.8c1,1,7,0.4,8.2,0.5c3.3,0,6.6-0.6,9.8,0.1c3.9,0.9,7.9,1.7,11.8,2.8c7.1,1.9,11.8,6.2,14.2,12.5
                c3.5,8.9,3.7,18.1,2.6,27.4c-1.8,15.2-5.4,30.2-6.2,45.5c-0.3,6-0.4,11.9,1.7,17.6c2,5.4,4.8,10.5,7.2,15.7
                c4.7,9.9,9.4,19.7,13.8,29.8c-0.8-1-1.7-1.7-2.6-2.6c-3.1-3.2-6.3-6.2-9.5-9.3c-4.6-4.5-8.8-9.3-13-14.1c-2.4-2.8-5.4-5.1-7.8-7.9
                c-4.1-4.9-8.5-9.6-13.5-13.6c-1.3-1.1-2.5-2.4-4.3-2.8c-0.7,0.7-0.1,1.3,0.3,1.9c1,1.8,2,3.5,3,5.3c1.7,2.9,3.1,5.9,4.8,8.7
                c4.2,7.1,7.8,14.4,10.8,22c2.6,6.8,6.1,13.2,10,19.4c5.3,8.4,11.6,16.2,16.7,24.8c0.4,0.6,1.2,1.2,0.7,1.9
                c-0.5,0.8-1.5,0.6-2.3,0.6c-0.6,0-1.2-0.1-1.7-0.3c-2.4-1.1-4.9-2-6.8-4c-2.3-2.4-4.5-4.7-6.4-7.3c-3.1-4.2-6.6-7.8-12.2-9.4
                c-4.7-1.3-9.3-0.3-13.9-0.1c-1,0.1-1.2,0.8-1.1,1.6c0.4,2.2,0.6,4.5,0.8,6.7c0.4,3.9,0.5,7.7,0.3,11.6c-0.1,1.7-0.6,3.5,0.2,5.2
                c6.6-0.3,13.2-0.6,19.8-0.8c2-0.1,4-0.1,6,0c9.2,0.3,18.3,1.2,27.5,1c16.2-0.4,32.3-0.6,48.5-1.5c-0.3-1-1.4-0.5-2.2-0.9
                c2.5-0.9,4.2-2.5,5.8-4.3c1.9-2.2,3.6-1.8,6.6-1c1.8,0.5,3.8,1.7,5.6,2.2c4.2,1.1,8.6,0.9,13.2,0.3c1.3-0.2,2.7-0.3,4-0.5
                c9.9-1.5,19.6-3.5,26.7-10.9c0.4-0.5,0.6-1,0.8-1.6c1.4-5.1,3.1-10.2,5-15.1c0.5-1.2,1.1-2.4,2.1-3.3c0.9-0.9,1-1.4,2.9-1.4
                c9.3-0.1,18.3-0.5,27.6-0.1c1,0.1,2.3-1.3,3.1-1.7c0.6-0.4,1.1-1,2-0.6c0.2,0,0.5,0,0.7-0.1c3.4-1.4,5.9-0.3,7.9,2.3
                c0.9,1.1,1.8,2.3,2.7,3.4c0.2,0.3,0.5,0.6,0.9,0.3C479.7,451.1,479.6,450.8,479.5,450.6z"></path></g><g id="Text"></g></svg>